<svg xmlns="http://www.w3.org/2000/svg" viewBox="0 0 60 30"><path fill="#00247d" d="M0 0v30h60V0z"/><path fill="#fff" d="M.007.009.002 3.4l23.281 11.633L.008 26.656 0 29.988l6.705.008 23.281-11.617 23.322 11.617 6.69.004v-3.313L36.691 15.034 59.997 3.399 60 .001 53.334 0 29.986 11.687 6.596.006z" color="#000" font-family="sans-serif" font-weight="400" overflow="visible" style="line-height:normal;text-indent:0;text-align:start;text-decoration-line:none;text-decoration-style:solid;text-decoration-color:#000;text-transform:none;block-progression:tb;white-space:normal;isolation:auto;mix-blend-mode:normal;solid-color:#000;solid-opacity:1"/><path fill="#cf142b" d="m29.974 15.037 4.471-.016L60 27.828l-.042 2.155-29.984-14.946zM55.47 0l4.333.006L29.97 15.044l-.002-2.254L55.471 0zM12.735 8.572 0 2.186V0l29.977 15.032-4.417.006-12.825-6.466zm17.237 6.46v2.186L4.474 29.998.014 30l29.958-14.968z"/><g color="#000" font-family="sans-serif" font-weight="400"><path fill="#fff" d="M25 0v10H0v10h25v10h10V20h25V10H35V0H25z" overflow="visible" style="line-height:normal;text-indent:0;text-align:start;text-decoration-line:none;text-decoration-style:solid;text-decoration-color:#000;text-transform:none;block-progression:tb;white-space:normal;isolation:auto;mix-blend-mode:normal;solid-color:#000;solid-opacity:1"/><path fill="#cf142b" d="M27 0v12H0v6h27v12h6V18h27v-6H33V0h-6z" overflow="visible" style="line-height:normal;text-indent:0;text-align:start;text-decoration-line:none;text-decoration-style:solid;text-decoration-color:#000;text-transform:none;block-progression:tb;white-space:normal;isolation:auto;mix-blend-mode:normal;solid-color:#000;solid-opacity:1"/></g></svg>