<svg width="100%" height="100%" xmlns="http://www.w3.org/2000/svg" xmlns:xlink="http://www.w3.org/1999/xlink">
<style type="text/css">
@media screen and (max-width: 767px) {
  .icon-stars,
  .icon-text,
  .icon-logo {
    fill: var(--color-white);
  }
  .logo-horizontal {
    visibility: visible;
  }
  .logo-vertical {
    visibility: hidden;
  }
}
@media screen and (min-width: 768px) {
  .icon-stars,
  .icon-text {
    fill: #69614E;
  }
  .icon-logo{
    fill: var(--color-primary);
  }
  .logo-horizontal {
    visibility: hidden;
  }
  .logo-vertical {
    visibility: visible;
  }
}
</style>

<symbol id="logo" viewBox="0 0 496 297">
	<path class="icon-logo" d="M39.58,179.42c-3.33,0-7.05,0.18-11.16,0.53s-8.05,0.53-11.84,0.53c-3.39,0.04-6.77-0.26-10.1-0.88
		c-2.96-0.59-4.79-1.83-5.5-3.72c-1.42-1.18-1.42-2.54,0-4.08s2.72-2.9,3.9-4.08c4.49-0.47,8.38-0.82,11.7-1.06s6.37-0.53,9.21-0.88
		s5.55-0.71,8.15-1.07s5.32-0.76,8.15-1.24c3.55-13.23,6.86-25.87,9.93-37.92s6.03-23.98,8.86-35.79
		c2.8-11.82,5.56-23.76,8.28-35.82s5.61-24.69,8.68-37.9c2.13-3.07,3.9-4.67,5.32-4.79c2.36-0.1,4.73-0.04,7.09,0.18
		c1.41,7.56,2.47,13.94,3.18,19.14s1.38,10.46,2,15.77c0.59,5.33,1.3,11.24,2.13,17.72s1.93,14.69,3.32,24.63
		c0.94,10.16,2.24,20.16,3.9,30s3.08,19.94,4.25,30.3c6.14-0.94,12.05-1.94,17.72-3c5.67-1.06,10.69-2.01,15.06-2.84
		c4.37-0.82,7.92-1.49,10.63-2c2.72-0.47,4.08-0.58,4.08-0.35c0.71,2.13-0.42,4.19-3.37,6.2c-3.64,2.36-7.49,4.37-11.51,6
		c-4.73,2-9.81,3.89-15.25,5.67s-10.28,3.37-14.53,4.78c0.48,4.49,1.31,10.11,2.49,16.84c1.18,6.73,2.42,13.88,3.71,21.44
		c1.33,7.56,2.69,15.18,4.08,22.86c1.39,7.68,2.63,14.65,3.72,20.91c1.07,6.25,1.83,11.46,2.31,15.59c0.48,4.13,0.47,6.44,0,6.92
		c-4,0.47-6.91,0.05-8.69-1.25c-2.01-1.42-4.22-2.56-6.55-3.36c-1.9-15.6-4.26-31.49-7.09-47.67s-5.07-32.31-6.74-48.38
		c-5.43,1.19-12.34,2.78-20.73,4.79c-8.39,2.01-17.08,3.72-26.05,5.14c-1.42,5.2-2.72,10.99-3.9,17.36s-2.36,12.47-3.54,18.3
		c-1.18,5.8-2.18,11-3,15.6c-0.83,4.6-1.6,7.62-2.31,9c-1.18,1.19-3.25,2-6.2,2.31c-2.65,0.45-5.36-0.41-7.26-2.31
		c0.28-3.28,0.82-6.54,1.59-9.74c1.06-5.08,2.3-10.69,3.72-16.83c1.42-6.14,2.9-12.11,4.43-17.91
		C37.37,187.28,38.58,182.73,39.58,179.42z M56.58,162.05c3.54-0.71,7.44-1.47,11.69-2.3c4.25-0.83,8.21-1.71,11.87-2.66
		c3.66-0.94,6.86-1.71,9.57-2.3c1.63-0.29,3.23-0.71,4.79-1.24c-0.48-5.2-0.89-9.51-1.24-12.94c-0.36-3.42-0.71-7-1.07-10.81
		c-0.36-3.81-0.77-8.2-1.24-13.29s-1.18-12-2.12-20.73c-1.9-14.89-3.26-25.99-4.08-33.32c-0.82-7.33-1.59-9.69-2.3-7.08
		c-3.33,12.75-6.23,23.8-8.69,33.13c-2.46,9.33-4.7,17.96-6.73,25.88c-2,7.91-3.83,15.64-5.49,23.21
		C59.88,145.16,58.23,153.31,56.58,162.05z M273.83,60.34c-0.71,4.25-1.53,8.74-2.48,13.47c-0.95,4.73-1.95,9.21-3,13.46
		c-1.06,4.26-1.95,7.93-2.66,11c-0.7,3.08-1.18,5-1.41,5.67c-1.42,4-3.31,9.2-5.67,15.6c-2.36,6.4-5.14,13.07-8.33,20
		c-3.19,6.97-6.79,13.94-10.81,20.91c-3.58,6.34-7.73,12.33-12.41,17.9c0,3.54,0.41,9.51,1.24,17.9s1.83,17.43,3,27.11
		c1.17,9.72,2.29,19.25,3.36,28.58c1.07,9.33,1.72,16.6,1.95,21.8c-1.18,1.18-2.24,0.94-3.19-0.71s-2.36-4.49-4.25-8.51
		c-1.42-6.15-2.54-11.82-3.37-17s-1.59-10.44-2.3-15.77c-0.71-5.33-1.47-10.95-2.3-16.84c-0.83-5.89-2.07-12.63-3.72-20.2
		c-4.5,5.67-9.88,12.11-16.13,19.32c-5.96,6.9-12.48,13.3-19.49,19.13c-6.74,5.56-13.36,9.46-19.85,11.7
		c-6.49,2.24-12.11,1.24-16.84-3c-2.84-3.82-4.17-8.55-3.72-13.29c0.45-5.42,1.89-10.71,4.26-15.6c2.63-5.57,5.84-10.86,9.56-15.77
		c3.9-5.19,7.86-10.03,11.88-14.53s7.8-8.41,11.34-11.73c3.54-3.33,6.14-5.7,7.8-7.09c3.3-2.13,6.07-3.84,8.32-5.14
		c2.25-1.3,4.25-2.36,6-3.19c1.75-0.82,3.59-1.42,5.49-1.77c2.35-0.37,4.73-0.43,7.09-0.18c-0.47-5.43-0.76-11.93-0.88-19.49
		c-0.12-7.56-0.12-15.18,0-22.86c0.11-7.68,0.35-14.83,0.7-21.44c0.19-5.11,0.73-10.21,1.6-15.25c0.54-5.54,1.67-11,3.37-16.3
		c1.77-5.67,4.02-11.19,6.73-16.48c2.52-5.02,5.53-9.77,9-14.18c2.87-3.78,6.59-6.83,10.87-8.88c3.76-1.75,8.01-2.19,12.05-1.24
		c4.13,0.95,8.2,3.91,12.23,8.86c3.3,4,4.97,9.02,5,15.07L273.83,60.34z M175.65,187.94c-6.38,6.61-11.05,12.69-14,18.25
		c-2.69,5.01-5.12,10.15-7.26,15.42v3.33c-0.01,1.49,0.17,2.97,0.53,4.42c0.35,1.42,1.09,2.7,2.13,3.72
		c1.06,1.07,2.77,1.37,5.13,0.89c3.67-1.39,7.08-3.36,10.11-5.85c1.29-1.06,2.7-2.18,4.25-3.37c1.53-1.17,3.48-2.71,5.85-4.6
		c3.33-3.54,7.41-7.56,12.22-12.05c4.69-4.31,8.96-9.05,12.76-14.16c3.45-4.52,5.93-9.71,7.27-15.24
		c1.18-5.19-0.36-10.27-4.61-15.24c-1.74,0.01-3.46,0.25-5.14,0.71c-2.35,0.77-4.56,1.91-6.55,3.37c-3.27,2.3-6.41,4.78-9.4,7.44
		C185.28,178.18,180.85,182.5,175.65,187.94z M227.04,154.94c4.14-4.55,7.71-9.59,10.63-15c2.84-5.33,6.03-11.67,9.58-19
		c3.57-7.86,6.36-16.05,8.33-24.45c2.42-9.61,4.13-19.38,5.13-29.24c0.95-8.31,0.95-16.69,0-25c-0.94-7.09-3.3-10.86-7.08-11.31
		c-3.32-0.47-6.38,0.77-9.22,3.72c-3.08,3.3-5.7,7-7.8,11c-2.4,4.48-4.41,9.17-6,14c-1.48,4.29-2.66,8.66-3.55,13.11
		c-0.88,4.22-1.55,8.48-2,12.76c-0.35,3.78-0.58,7.74-0.7,11.87c-0.12,4.13-0.3,8.62-0.53,13.47c-0.24,4.85-0.71,10.81-1.42,17.9
		c0,3.55,0.17,7.1,0.53,10.63c0.27,3.03,0.74,6.04,1.42,9c0.42,1.92,0.95,3.81,1.59,5.67C226.45,155.38,226.8,155.67,227.04,154.94
		L227.04,154.94z M306.79,173.39c0,0.71,0.35,4,1.06,9.93s1.53,13.11,2.48,21.62s2.07,17.66,3.37,27.47s2.48,19.13,3.54,28
		s2.07,16.65,3,23.39s1.53,11,1.77,12.93c-1.42-0.23-2.61-0.47-3.55-0.71c-1.09-0.32-2.07-0.93-2.83-1.77
		c-1.22-1.27-2.35-2.63-3.37-4.07c-1.3-1.78-3.13-4.32-5.49-7.62c-3.08-21.75-5.5-40.71-7.27-56.89s-3.24-29.35-4.43-39.52
		c-2.84,3.96-5.92,7.75-9.21,11.35c-1.89,1.89-3.07,2.83-3.55,2.83c-0.71,0-0.82-1.06-0.35-3.19c0.24-1.18,0.47-2.36,0.71-3.54
		s0.47-2.25,0.7-3.19c0.21-0.88,0.58-1.72,1.07-2.48c1.61-2.28,3.08-4.65,4.43-7.09c1.15-2.05,2.15-4.18,3-6.38
		c0.89-2.19,1.6-4.44,2.13-6.74c-0.24-2.59-0.42-4.84-0.53-6.73c-0.13-1.89-0.18-3.84-0.18-5.85s-0.06-4.07-0.18-6.2
		s-0.17-4.84-0.17-8.15v-34.91c0-7.67,0.12-15.76,0.35-24.28s0.53-16.61,0.89-24.27c0.35-7.68,0.82-14.65,1.41-20.92
		c0.4-4.82,1.07-9.61,1.99-14.35c1.65-6.85,4.19-12.11,7.62-15.77s7.03-5.78,10.8-6.35c3.95-0.55,7.95,0.45,11.17,2.8
		c3.66,2.49,6.43,6.33,8.32,11.52c2.13,5.2,3.19,11.93,3.19,20.2c-0.06,9.08-0.76,18.14-2.1,27.12c-1.42,9.8-3.37,20.02-5.85,30.65
		c-2.48,10.63-5.15,20.97-8,31c-2.83,10.04-5.67,19.43-8.5,28.17C311.4,160.14,308.92,167.47,306.79,173.39L306.79,173.39z
		 M303.95,153.2c5.75-16.69,10.6-33.67,14.53-50.87c3.78-16.67,6.56-31.61,8.33-44.83s2.36-23.91,1.77-32.07
		c-0.59-8.15-2.3-12.34-5.14-12.58c-4.49-1.66-8.04-0.13-10.63,4.6s-4.67,11.34-6.23,19.85c-1.66,9.67-2.66,19.44-3,29.24
		c-0.48,10.99-0.66,21.92-0.54,32.78s0.3,21.14,0.54,30.84C303.83,139.85,303.95,147.53,303.95,153.2L303.95,153.2z M361.36,146.46
		c0.71-0.23,2.71-0.89,6-2s6-1.24,8.14-0.53c6.85-0.24,12.11,1.53,15.78,5.31c3.67,3.78,3.96,11.11,0.88,22
		c-4.49,12.05-10.46,22.09-17.89,30.12c-8.02,8.52-16.87,16.23-26.41,23c2.36,6.15,5.9,9.57,10.63,10.28
		c5.08,0.66,10.24-0.14,14.89-2.3c5.43-2.37,10.54-5.4,15.24-9c4.96-3.78,8.98-7.09,12.05-9.93c4.96-4.25,8.92-7.85,11.87-10.8
		c3.35-3.41,6.49-7.02,9.39-10.82c0.71-0.47,1.12-0.4,1.25,0.18c0.09,0.89,0.03,1.79-0.18,2.66c-0.24,1.18-0.6,2.84-1.07,5
		c-0.63,1.51-1.34,2.99-2.12,4.43c-0.86,1.51-1.87,2.94-3,4.26c-1.33,1.53-3.05,3.36-5.14,5.49c-2.09,2.13-4.69,4.96-7.8,8.51
		c-3.55,3.33-6.97,6.58-10.28,9.74c-3.2,3.11-6.7,5.9-10.45,8.33c-3.68,2.38-7.76,4.08-12.05,5c-4.97,0.95-10.09,0.95-15.06,0
		c-3.99-1.3-7.8-3.08-11.35-5.31c-2.49-1.58-4.71-3.56-6.56-5.85c-1.34-1.69-2.46-3.53-3.36-5.49c-0.62-1.37-1.1-2.79-1.42-4.26
		c-1.18-4.72-1.65-11.1-1.42-19.13c0.23-8.03,2.6-18.43,7.09-31.2c2.68-5.96,6.01-11.6,9.93-16.83
		C352.28,152.87,356.51,149.17,361.36,146.46L361.36,146.46z M345.76,209.19c3.75-2.08,7.36-4.38,10.82-6.91
		c4.23-3.03,8.14-6.48,11.69-10.28c3.68-3.93,6.89-8.27,9.57-12.94c2.66-4.53,4.18-9.64,4.43-14.88c0.71-3.54,0.59-6.02-0.36-7.44
		c-0.47-0.71-0.94-1.07-1.41-1.07c-4-1.88-8.02-1.29-12.05,1.78c-4.48,3.61-8.22,8.07-11,13.11c-3.45,6.01-6.25,12.38-8.33,19
		C346.99,195.88,345.85,202.51,345.76,209.19L345.76,209.19z"/>
	<path class="icon-logo" d="M419.13,134.77c-0.23-2.13,0.89-2.67,3.37-1.6c2.48,1.06,5,2.19,7.62,3.37c0.94,5.44,1.65,9.74,2.13,12.93
		s0.82,6.2,1.06,9s0.47,5.91,0.71,9.21s0.59,7.69,1.06,13.12c2.05-5.29,4.67-10.33,7.8-15.06c3.16-4.66,7.19-8.67,11.87-11.8
		c5.28-3.49,11.18-5.95,17.37-7.26c6.73-1.54,14.82-2.07,24.28-1.6c0.04,1.8-0.67,3.53-1.95,4.79c-1.33,1.33-4.33,2.33-9,3
		c-6.39,1-12.49,3.36-17.9,6.91c-4.93,3.29-9.34,7.29-13.11,11.87c-3.58,4.34-6.56,9.15-8.86,14.29c-2.25,5.08-4.08,9.75-5.49,14
		c-0.24,2.12-0.54,5.12-0.89,9s-0.59,8.01-0.71,12.4l-0.35,12.76c-0.18,3.26,0,6.52,0.53,9.74c0.25,1.17-0.45,2.33-1.6,2.66
		c-1.41,0.62-2.9,1.04-4.43,1.24c-1.54,0.24-3.11,0.12-4.6-0.35c-1.42-0.48-2.13-1.3-2.13-2.48c0.47-24.33-0.2-45.3-2-62.91
		C422.11,164.39,420.52,148.65,419.13,134.77z"/>
</symbol>
<symbol id="text" viewBox="0 0 466 47">
<path class="icon-text" d="M-0.22-0.04H4.1v18.1h22v-18.1h4.32v43.19h-4.33V22.3h-22v20.85h-4.31V-0.04z M61.38,10.38
	c4.67-0.11,9.15,1.85,12.23,5.35c5.99,6.63,5.88,16.74-0.25,23.24c-3.09,3.33-7.46,5.15-12,5c-4.53,0.15-8.91-1.68-12-5
	c-6.12-6.49-6.22-16.59-0.25-23.21C52.21,12.24,56.7,10.27,61.38,10.38z M61.38,14.38c-3.35-0.03-6.55,1.35-8.82,3.81
	c-2.41,2.43-3.74,5.74-3.68,9.17c-0.01,2.26,0.57,4.48,1.68,6.45c1.06,1.93,2.63,3.54,4.54,4.63c3.9,2.17,8.65,2.17,12.55,0
	c1.91-1.1,3.48-2.7,4.54-4.63c1.1-1.97,1.68-4.19,1.67-6.45c0.06-3.43-1.27-6.74-3.69-9.17c-2.28-2.44-5.47-3.81-8.81-3.78
	L61.38,14.38z M95.23-0.66h4.11v11.87h6.52v3.55h-6.52v28.39h-4.11V14.76h-5.61v-3.55h5.61V-0.66z M144.93,32.55l3.46,1.82
	c-0.97,2.02-2.31,3.85-3.94,5.4c-1.45,1.35-3.15,2.41-5,3.13c-2.02,0.74-4.17,1.11-6.32,1.07c-5.21,0-9.28-1.71-12.23-5.12
	c-2.84-3.19-4.41-7.32-4.4-11.59c-0.04-3.93,1.28-7.76,3.73-10.83c2.99-3.95,7.71-6.21,12.67-6.05c5.08-0.15,9.92,2.16,13,6.2
	c2.39,3.13,3.63,6.98,3.53,10.92H120.7c-0.05,3.39,1.23,6.66,3.56,9.12c2.2,2.34,5.29,3.64,8.5,3.57c1.62,0,3.23-0.29,4.75-0.85
	c1.43-0.51,2.76-1.28,3.92-2.26C142.82,35.76,144,34.23,144.93,32.55L144.93,32.55z M144.93,23.95c-0.42-1.9-1.23-3.7-2.4-5.26
	c-1.12-1.37-2.54-2.45-4.16-3.17c-1.7-0.8-3.56-1.21-5.44-1.2c-2.98-0.07-5.87,1.01-8.08,3c-1.84,1.81-3.14,4.1-3.74,6.61
	L144.93,23.95z M162.56-1.13h4.11v44.28h-4.11V-1.13z M246.18,7.21l-3.35,3.17c-2.27-2.28-4.96-4.11-7.91-5.39
	c-2.63-1.17-5.48-1.79-8.36-1.83c-3.39,0-6.72,0.86-9.68,2.49c-2.95,1.56-5.41,3.9-7.12,6.77c-1.64,2.72-2.51,5.83-2.52,9
	c0.01,3.27,0.91,6.48,2.61,9.27c1.73,2.91,4.23,5.3,7.22,6.9c3.1,1.68,6.58,2.54,10.1,2.51c4.09,0.12,8.08-1.21,11.28-3.76
	c3.02-2.42,4.98-5.91,5.46-9.75h-13.79v-4.17h18.61c-0.04,6.67-2.02,11.97-5.94,15.9s-9.17,5.9-15.76,5.89c-8,0-14.33-2.72-19-8.16
	c-3.52-4.02-5.43-9.2-5.37-14.54c-0.02-4.02,1.04-7.96,3.08-11.42c2.01-3.48,4.93-6.34,8.46-8.27c3.72-2.03,7.91-3.06,12.15-3
	c3.54-0.02,7.06,0.66,10.34,2C240.23,2.35,243.44,4.51,246.18,7.21L246.18,7.21z M294.12,11.21v31.94h-4.05v-5.49
	c-1.57,1.97-3.55,3.58-5.8,4.73c-6.28,3-13.77,1.66-18.62-3.33c-3.17-3.18-4.9-7.51-4.8-12c-0.06-4.43,1.69-8.7,4.85-11.81
	c3.04-3.18,7.26-4.96,11.66-4.9c2.48-0.03,4.92,0.54,7.12,1.68c2.23,1.21,4.14,2.92,5.59,5v-5.87L294.12,11.21z M277.69,14.35
	c-4.55-0.04-8.76,2.43-10.95,6.42c-2.31,3.99-2.31,8.91,0,12.9c1.08,1.99,2.69,3.65,4.64,4.8c1.89,1.13,4.06,1.72,6.26,1.72
	c2.25,0,4.45-0.59,6.4-1.71c1.95-1.07,3.56-2.67,4.65-4.6c1.1-2,1.66-4.26,1.63-6.54c0.09-3.46-1.23-6.81-3.66-9.27
	C284.33,15.63,281.07,14.28,277.69,14.35z M325.44,14.7l-2.64,2.73c-2.2-2.13-4.35-3.19-6.45-3.2c-1.27-0.02-2.5,0.45-3.43,1.32
	c-0.9,0.77-1.42,1.89-1.43,3.08c0.02,1.11,0.44,2.18,1.18,3c1.43,1.41,3.11,2.56,4.95,3.37c3.06,1.59,5.13,3.12,6.24,4.58
	c1.05,1.45,1.62,3.2,1.61,5c0.05,2.51-0.95,4.92-2.76,6.66c-1.83,1.82-4.33,2.8-6.91,2.73c-1.83,0.01-3.63-0.41-5.28-1.2
	c-1.63-0.76-3.05-1.9-4.16-3.32l2.58-2.94c2.1,2.37,4.33,3.56,6.68,3.56c1.56,0.04,3.07-0.53,4.21-1.59
	c1.1-0.93,1.74-2.29,1.74-3.73c0-1.15-0.4-2.26-1.15-3.14c-1.52-1.42-3.27-2.57-5.18-3.4c-2.88-1.49-4.85-3-5.89-4.41
	c-1.04-1.46-1.59-3.21-1.55-5c-0.06-2.26,0.84-4.44,2.48-6c1.68-1.61,3.95-2.48,6.28-2.41C319.5,10.38,322.46,11.82,325.44,14.7
	L325.44,14.7z M342.32-0.66h4.11v11.87h6.52v3.55h-6.52v28.39h-4.11V14.76h-5.61v-3.55h5.61V-0.66z M365.13-1.13h4.11v18.06
	c1.46-2.01,3.33-3.69,5.49-4.92c1.99-1.09,4.22-1.65,6.49-1.63c2.25-0.04,4.46,0.59,6.35,1.82c1.82,1.19,3.25,2.89,4.1,4.89
	c0.88,2.05,1.32,5.25,1.32,9.62v16.44h-4.11V27.91c0.09-2.47-0.06-4.93-0.44-7.37c-0.36-1.86-1.33-3.54-2.77-4.77
	c-1.52-1.12-3.38-1.69-5.27-1.6c-2.45-0.02-4.83,0.86-6.68,2.47c-1.92,1.56-3.29,3.7-3.9,6.1c-0.49,2.87-0.68,5.78-0.58,8.69v11.72
	h-4.11L365.13-1.13z M422.93,10.38c4.67-0.11,9.15,1.85,12.24,5.35c5.97,6.63,5.87,16.74-0.25,23.24c-6.57,6.63-17.27,6.67-23.9,0.1
	c-0.03-0.03-0.07-0.07-0.1-0.1c-6.13-6.48-6.24-16.59-0.25-23.21C413.76,12.24,418.25,10.27,422.93,10.38z M422.93,14.38
	c-3.34-0.03-6.54,1.34-8.81,3.78c-2.42,2.43-3.75,5.74-3.69,9.17c-0.01,2.26,0.57,4.49,1.69,6.45c1.05,1.93,2.62,3.54,4.53,4.63
	c3.9,2.17,8.65,2.17,12.55,0c1.91-1.09,3.48-2.7,4.54-4.63c1.11-1.97,1.69-4.19,1.68-6.45c0.06-3.43-1.27-6.74-3.7-9.17
	c-2.28-2.43-5.47-3.79-8.8-3.75L422.93,14.38z M466.35-1.13v4c-1.21-0.59-2.53-0.93-3.88-1c-0.7-0.03-1.39,0.14-2,0.48
	c-0.46,0.24-0.82,0.64-1,1.12c-0.19,1.11-0.26,2.24-0.2,3.36v4.32h6.67v3.55h-6.67v28.39h-4.11V14.76h-4.19v-3.55h4.19v-5
	c-0.09-1.66,0.13-3.32,0.63-4.9c0.44-1,1.19-1.83,2.15-2.36c1.1-0.62,2.36-0.93,3.62-0.89C463.19-1.89,464.8-1.62,466.35-1.13z"/>
</symbol>
<symbol id="stars" viewBox="0 0 200.2 59">
	<path class="icon-stars" d="M30.4,48.7l-19.2,9.7l4-21.2L0,21.9l21.4-2.7L31.2,0l9.3,19.5l21.3,3.4L46.1,37.7L49.4,59L30.4,48.7L30.4,48.7
		z M45.7,53.8L43,36.7l12.6-11.9L38.5,22L31.1,6.3l-7.6,14.8l-0.3,0.7L6,24l12.2,12.3l-3.2,17l15.5-7.8L45.7,53.8L45.7,53.8z
		 M99.7,48.7l-19.2,9.7l4-21.2L69.2,21.9l21.3-2.7L100.4,0l9.2,19.5l21.3,3.4l-15.7,14.8l3.3,21.3L99.7,48.7L99.7,48.7z M115,53.8
		l-2.7-17.1l12.6-11.9L107.8,22l-7.4-15.7l-7.6,14.8l-0.3,0.7L75.2,24l12.2,12.3l-3.2,17l15.5-7.8L115,53.8L115,53.8z M168.9,48.7
		l-19.2,9.7l4-21.2l-15.2-15.3l21.4-2.7L169.7,0l9.3,19.5l21.3,3.4l-15.6,14.8l3.3,21.3L168.9,48.7L168.9,48.7z M184.2,53.8
		l-2.6-17.1l12.6-11.9L177.1,22l-7.5-15.7L162,21.1l-0.3,0.7L144.5,24l12.2,12.3l-3.2,17l15.5-7.8L184.2,53.8L184.2,53.8z"/>
</symbol>
  <svg class="logo-horizontal" viewBox="0 0 990.7 297.9">
    <use xlink:href="#logo" width="496" height="297" x="0" y="0"/>
    <use xlink:href="#text" width="466" height="47" x="524" y="155" />
    <use xlink:href="#stars" width="200.2" height="60" x="520" y="222" />

  </svg>
  <svg class="logo-vertical" viewBox="0 0 496.53 423.02">
    <use xlink:href="#logo" width="496" height="297" x="0" y="0"/>
    <use xlink:href="#text" width="466" height="47" x="9" y="297" />
    <use xlink:href="#stars" width="200.2" height="60" x="143" y="364" />
  </svg>
</svg>
