<?xml version="1.0" encoding="utf-8"?>
<!-- Generator: Adobe Illustrator 24.0.1, SVG Export Plug-In . SVG Version: 6.00 Build 0)  -->
<svg version="1.1" id="Layer_1" xmlns="http://www.w3.org/2000/svg" xmlns:xlink="http://www.w3.org/1999/xlink" x="0px" y="0px"
	 viewBox="0 0 466 124" style="enable-background:new 0 0 466 124;" xml:space="preserve">
<style type="text/css">
	.st0{fill:#69614E;}
</style>
<path class="st0" d="M-0.22-0.04H4.1v18.1h22v-18.1h4.32v43.19h-4.33V22.3h-22v20.85h-4.31V-0.04z M61.38,10.38
	c4.67-0.11,9.15,1.85,12.23,5.35c5.99,6.63,5.88,16.74-0.25,23.24c-3.09,3.33-7.46,5.15-12,5c-4.53,0.15-8.91-1.68-12-5
	c-6.12-6.49-6.22-16.59-0.25-23.21C52.21,12.24,56.7,10.27,61.38,10.38z M61.38,14.38c-3.35-0.03-6.55,1.35-8.82,3.81
	c-2.41,2.43-3.74,5.74-3.68,9.17c-0.01,2.26,0.57,4.48,1.68,6.45c1.06,1.93,2.63,3.54,4.54,4.63c3.9,2.17,8.65,2.17,12.55,0
	c1.91-1.1,3.48-2.7,4.54-4.63c1.1-1.97,1.68-4.19,1.67-6.45c0.06-3.43-1.27-6.74-3.69-9.17c-2.28-2.44-5.47-3.81-8.81-3.78
	L61.38,14.38z M95.23-0.66h4.11v11.87h6.52v3.55h-6.52v28.39h-4.11V14.76h-5.61v-3.55h5.61V-0.66z M144.93,32.55l3.46,1.82
	c-0.97,2.02-2.31,3.85-3.94,5.4c-1.45,1.35-3.15,2.41-5,3.13c-2.02,0.74-4.17,1.11-6.32,1.07c-5.21,0-9.28-1.71-12.23-5.12
	c-2.84-3.19-4.41-7.32-4.4-11.59c-0.04-3.93,1.28-7.76,3.73-10.83c2.99-3.95,7.71-6.21,12.67-6.05c5.08-0.15,9.92,2.16,13,6.2
	c2.39,3.13,3.63,6.98,3.53,10.92H120.7c-0.05,3.39,1.23,6.66,3.56,9.12c2.2,2.34,5.29,3.64,8.5,3.57c1.62,0,3.23-0.29,4.75-0.85
	c1.43-0.51,2.76-1.28,3.92-2.26C142.82,35.76,144,34.23,144.93,32.55L144.93,32.55z M144.93,23.95c-0.42-1.9-1.23-3.7-2.4-5.26
	c-1.12-1.37-2.54-2.45-4.16-3.17c-1.7-0.8-3.56-1.21-5.44-1.2c-2.98-0.07-5.87,1.01-8.08,3c-1.84,1.81-3.14,4.1-3.74,6.61
	L144.93,23.95z M162.56-1.13h4.11v44.28h-4.11V-1.13z M246.18,7.21l-3.35,3.17c-2.27-2.28-4.96-4.11-7.91-5.39
	c-2.63-1.17-5.48-1.79-8.36-1.83c-3.39,0-6.72,0.86-9.68,2.49c-2.95,1.56-5.41,3.9-7.12,6.77c-1.64,2.72-2.51,5.83-2.52,9
	c0.01,3.27,0.91,6.48,2.61,9.27c1.73,2.91,4.23,5.3,7.22,6.9c3.1,1.68,6.58,2.54,10.1,2.51c4.09,0.12,8.08-1.21,11.28-3.76
	c3.02-2.42,4.98-5.91,5.46-9.75h-13.79v-4.17h18.61c-0.04,6.67-2.02,11.97-5.94,15.9s-9.17,5.9-15.76,5.89c-8,0-14.33-2.72-19-8.16
	c-3.52-4.02-5.43-9.2-5.37-14.54c-0.02-4.02,1.04-7.96,3.08-11.42c2.01-3.48,4.93-6.34,8.46-8.27c3.72-2.03,7.91-3.06,12.15-3
	c3.54-0.02,7.06,0.66,10.34,2C240.23,2.35,243.44,4.51,246.18,7.21L246.18,7.21z M294.12,11.21v31.94h-4.05v-5.49
	c-1.57,1.97-3.55,3.58-5.8,4.73c-6.28,3-13.77,1.66-18.62-3.33c-3.17-3.18-4.9-7.51-4.8-12c-0.06-4.43,1.69-8.7,4.85-11.81
	c3.04-3.18,7.26-4.96,11.66-4.9c2.48-0.03,4.92,0.54,7.12,1.68c2.23,1.21,4.14,2.92,5.59,5v-5.87L294.12,11.21z M277.69,14.35
	c-4.55-0.04-8.76,2.43-10.95,6.42c-2.31,3.99-2.31,8.91,0,12.9c1.08,1.99,2.69,3.65,4.64,4.8c1.89,1.13,4.06,1.72,6.26,1.72
	c2.25,0,4.45-0.59,6.4-1.71c1.95-1.07,3.56-2.67,4.65-4.6c1.1-2,1.66-4.26,1.63-6.54c0.09-3.46-1.23-6.81-3.66-9.27
	C284.33,15.63,281.07,14.28,277.69,14.35z M325.44,14.7l-2.64,2.73c-2.2-2.13-4.35-3.19-6.45-3.2c-1.27-0.02-2.5,0.45-3.43,1.32
	c-0.9,0.77-1.42,1.89-1.43,3.08c0.02,1.11,0.44,2.18,1.18,3c1.43,1.41,3.11,2.56,4.95,3.37c3.06,1.59,5.13,3.12,6.24,4.58
	c1.05,1.45,1.62,3.2,1.61,5c0.05,2.51-0.95,4.92-2.76,6.66c-1.83,1.82-4.33,2.8-6.91,2.73c-1.83,0.01-3.63-0.41-5.28-1.2
	c-1.63-0.76-3.05-1.9-4.16-3.32l2.58-2.94c2.1,2.37,4.33,3.56,6.68,3.56c1.56,0.04,3.07-0.53,4.21-1.59
	c1.1-0.93,1.74-2.29,1.74-3.73c0-1.15-0.4-2.26-1.15-3.14c-1.52-1.42-3.27-2.57-5.18-3.4c-2.88-1.49-4.85-3-5.89-4.41
	c-1.04-1.46-1.59-3.21-1.55-5c-0.06-2.26,0.84-4.44,2.48-6c1.68-1.61,3.95-2.48,6.28-2.41C319.5,10.38,322.46,11.82,325.44,14.7
	L325.44,14.7z M342.32-0.66h4.11v11.87h6.52v3.55h-6.52v28.39h-4.11V14.76h-5.61v-3.55h5.61V-0.66z M365.13-1.13h4.11v18.06
	c1.46-2.01,3.33-3.69,5.49-4.92c1.99-1.09,4.22-1.65,6.49-1.63c2.25-0.04,4.46,0.59,6.35,1.82c1.82,1.19,3.25,2.89,4.1,4.89
	c0.88,2.05,1.32,5.25,1.32,9.62v16.44h-4.11V27.91c0.09-2.47-0.06-4.93-0.44-7.37c-0.36-1.86-1.33-3.54-2.77-4.77
	c-1.52-1.12-3.38-1.69-5.27-1.6c-2.45-0.02-4.83,0.86-6.68,2.47c-1.92,1.56-3.29,3.7-3.9,6.1c-0.49,2.87-0.68,5.78-0.58,8.69v11.72
	h-4.11L365.13-1.13z M422.93,10.38c4.67-0.11,9.15,1.85,12.24,5.35c5.97,6.63,5.87,16.74-0.25,23.24c-6.57,6.63-17.27,6.67-23.9,0.1
	c-0.03-0.03-0.07-0.07-0.1-0.1c-6.13-6.48-6.24-16.59-0.25-23.21C413.76,12.24,418.25,10.27,422.93,10.38z M422.93,14.38
	c-3.34-0.03-6.54,1.34-8.81,3.78c-2.42,2.43-3.75,5.74-3.69,9.17c-0.01,2.26,0.57,4.49,1.69,6.45c1.05,1.93,2.62,3.54,4.53,4.63
	c3.9,2.17,8.65,2.17,12.55,0c1.91-1.09,3.48-2.7,4.54-4.63c1.11-1.97,1.69-4.19,1.68-6.45c0.06-3.43-1.27-6.74-3.7-9.17
	c-2.28-2.43-5.47-3.79-8.8-3.75L422.93,14.38z M466.35-1.13v4c-1.21-0.59-2.53-0.93-3.88-1c-0.7-0.03-1.39,0.14-2,0.48
	c-0.46,0.24-0.82,0.64-1,1.12c-0.19,1.11-0.26,2.24-0.2,3.36v4.32h6.67v3.55h-6.67v28.39h-4.11V14.76h-4.19v-3.55h4.19v-5
	c-0.09-1.66,0.13-3.32,0.63-4.9c0.44-1,1.19-1.83,2.15-2.36c1.1-0.62,2.36-0.93,3.62-0.89C463.19-1.89,464.8-1.62,466.35-1.13z"/>
<g>
	<path class="st0" d="M163.4,113.54l-19.23,9.74l4-21.19l-15.2-15.29l21.35-2.74l9.83-19.18l9.26,19.48l21.28,3.41l-15.66,14.79
		l3.32,21.32L163.4,113.54L163.4,113.54z M178.68,118.67l-2.66-17.14l12.6-11.92l-17.13-2.76l-7.43-15.67l-7.58,14.78l-0.34,0.66
		l-17.2,2.23l12.23,12.3l-3.19,17.05l15.48-7.84L178.68,118.67L178.68,118.67z M232.66,113.54l-19.24,9.74l4-21.19l-15.2-15.29
		l21.34-2.74l9.85-19.18l9.24,19.48l21.29,3.41l-15.66,14.79l3.28,21.32L232.66,113.54L232.66,113.54z M247.94,118.67l-2.68-17.14
		l12.61-11.92l-17.13-2.76l-7.43-15.67l-7.58,14.78l-0.34,0.66l-17.2,2.24l12.23,12.29l-3.19,17.05l15.47-7.84L247.94,118.67
		L247.94,118.67z M301.91,113.54l-19.25,9.74l4-21.19l-15.2-15.29l21.36-2.74l9.83-19.18l9.26,19.48l21.28,3.41l-15.63,14.79
		l3.33,21.32l-18.94-10.34H301.91z M317.19,118.67l-2.63-17.14l12.6-11.92l-17.13-2.76l-7.47-15.67l-7.57,14.78l-0.34,0.66
		l-17.2,2.24l12.23,12.29l-3.19,17.05l15.48-7.84l15.23,8.31L317.19,118.67z"/>
</g>
</svg>
