<svg id="logo" xmlns="http://www.w3.org/2000/svg" viewBox="0 0 767.3 235.3">
  <style>
    .logo-small-st0{fill:#F95A09;} .logo-small-st1{fill:#FFFFFF;} .logo-small-st2{fill:#FEDECE;}
  </style>
  <path class="logo-small-st0" d="M0 0h767.3v235.3H0z"/>
  <path class="logo-small-st1" d="M268.9 103.4l4.1-46.5 13 1.1-7.1 81.7h-.1c0 1-.1 2-.2 3-3 34.7-33.6 60.3-68.3 57.3-34.7-3-60.3-33.6-57.3-68.3 3-34.7 33.6-60.3 68.3-57.3 20.3 1.9 37.5 13.1 47.6 29zm-253 13.4L23 35.1l13 1.1-4.1 46.5c12.8-13.9 31.7-22 52-20.2 34.7 3 60.3 33.6 57.3 68.3S107.5 191 72.8 188s-60.3-33.6-57.3-68.3c.1-1 .2-2 .4-2.9zm58 58.2c27.5 2.4 51.8-17.9 54.2-45.5s-17.9-51.8-45.5-54.2-51.8 17.9-54.2 45.5 18 51.8 45.5 54.2zm137.5 12.1c27.5 2.4 51.8-17.9 54.2-45.5s-17.9-51.8-45.5-54.2-51.8 17.9-54.2 45.5c-2.3 27.5 18 51.8 45.5 54.2z"/>
  <path class="logo-small-st2" d="M337.5 142v-17.7c0-2.2-.5-3.9-1.5-5s-2.6-1.6-4.8-1.6c-2.9 0-5 .8-6.3 2.3-1.3 1.6-2 4.1-2 7.7V142h-4.1v-38.8h4.1v11.7c0 1.4-.1 2.6-.2 3.5h.2c.8-1.3 2-2.3 3.5-3.1 1.5-.8 3.2-1.1 5.1-1.1 3.3 0 5.8.8 7.5 2.4s2.5 4.1 2.5 7.6V142h-4zm30.2 0l-.8-3.9h-.2c-1.4 1.7-2.7 2.9-4.1 3.5-1.4.6-3 .9-5.1.9-2.7 0-4.8-.7-6.4-2.1-1.5-1.4-2.3-3.4-2.3-6 0-5.5 4.4-8.4 13.2-8.7l4.6-.1v-1.7c0-2.1-.5-3.7-1.4-4.7-.9-1-2.4-1.5-4.4-1.5-2.3 0-4.8.7-7.7 2.1l-1.3-3.2c1.3-.7 2.8-1.3 4.4-1.7 1.6-.4 3.2-.6 4.8-.6 3.3 0 5.7.7 7.2 2.2s2.4 3.8 2.4 7V142h-2.9zm-9.4-2.9c2.6 0 4.6-.7 6.1-2.1 1.5-1.4 2.2-3.4 2.2-5.9v-2.5l-4.1.2c-3.3.1-5.7.6-7.1 1.5-1.5.9-2.2 2.3-2.2 4.2 0 1.5.5 2.6 1.4 3.4.9.8 2.1 1.2 3.7 1.2zm38.6 2.9l-.8-3.9h-.2c-1.4 1.7-2.7 2.9-4.1 3.5-1.4.6-3 .9-5.1.9-2.7 0-4.8-.7-6.4-2.1-1.5-1.4-2.3-3.4-2.3-6 0-5.5 4.4-8.4 13.2-8.7l4.6-.1v-1.7c0-2.1-.5-3.7-1.4-4.7-.9-1-2.4-1.5-4.4-1.5-2.3 0-4.8.7-7.7 2.1l-1.3-3.2c1.3-.7 2.8-1.3 4.4-1.7 1.6-.4 3.2-.6 4.8-.6 3.3 0 5.7.7 7.2 2.2s2.4 3.8 2.4 7V142h-2.9zm-9.4-2.9c2.6 0 4.6-.7 6.1-2.1 1.5-1.4 2.2-3.4 2.2-5.9v-2.5l-4.1.2c-3.3.1-5.7.6-7.1 1.5-1.5.9-2.2 2.3-2.2 4.2 0 1.5.5 2.6 1.4 3.4.8.8 2.1 1.2 3.7 1.2zm34.2-24.9c1.2 0 2.3.1 3.3.3l-.6 3.8c-1.1-.2-2.1-.4-3-.4-2.2 0-4.1.9-5.7 2.7-1.6 1.8-2.4 4-2.4 6.7V142h-4.1v-27.3h3.4l.5 5.1h.2c1-1.8 2.2-3.1 3.7-4.1 1.4-1.1 3-1.5 4.7-1.5zM435 142h-4.1v-38.8h4.1V142zm21.1.5c-4 0-7.2-1.2-9.6-3.7-2.3-2.5-3.5-5.9-3.5-10.2 0-4.4 1.1-7.9 3.3-10.5 2.2-2.6 5.1-3.9 8.7-3.9 3.4 0 6.1 1.1 8.1 3.4s3 5.2 3 8.9v2.6h-18.8c.1 3.2.9 5.6 2.4 7.3 1.5 1.7 3.7 2.5 6.5 2.5 2.9 0 5.8-.6 8.7-1.8v3.7c-1.5.6-2.8 1.1-4.1 1.4-1.3.1-2.9.3-4.7.3zm-1.2-24.9c-2.2 0-3.9.7-5.2 2.1-1.3 1.4-2.1 3.4-2.3 5.9h14.3c0-2.6-.6-4.6-1.7-6-1.2-1.3-2.9-2-5.1-2zm53.8 24.4v-17.8c0-2.2-.5-3.8-1.4-4.9-.9-1.1-2.4-1.6-4.3-1.6-2.6 0-4.5.7-5.7 2.2s-1.8 3.8-1.8 6.8V142h-4.1v-17.8c0-2.2-.5-3.8-1.4-4.9-.9-1.1-2.4-1.6-4.4-1.6-2.6 0-4.5.8-5.7 2.3-1.2 1.6-1.8 4.1-1.8 7.6V142H474v-27.3h3.4l.7 3.7h.2c.8-1.3 1.9-2.4 3.3-3.1s3-1.1 4.8-1.1c4.3 0 7.1 1.5 8.4 4.6h.2c.8-1.4 2-2.6 3.5-3.4 1.5-.8 3.3-1.2 5.3-1.2 3.1 0 5.4.8 6.9 2.4 1.5 1.6 2.3 4.1 2.3 7.6V142h-4.3zm97.9-3.7h-.2c-1.9 2.8-4.8 4.2-8.6 4.2-3.6 0-6.3-1.2-8.3-3.7-2-2.4-3-5.9-3-10.4s1-8 3-10.5 4.8-3.7 8.3-3.7c3.7 0 6.5 1.3 8.5 4h.3l-.2-2-.1-1.9v-11.1h4.1V142H607l-.4-3.7zm-8.3.7c2.8 0 4.9-.8 6.1-2.3 1.3-1.5 1.9-4 1.9-7.4v-.9c0-3.9-.6-6.6-1.9-8.3-1.3-1.7-3.3-2.5-6.2-2.5-2.4 0-4.3.9-5.6 2.8s-1.9 4.5-1.9 8 .6 6.1 1.9 7.9 3.2 2.7 5.7 2.7zm33.3 3.5c-4 0-7.2-1.2-9.6-3.7-2.3-2.5-3.5-5.9-3.5-10.2 0-4.4 1.1-7.9 3.3-10.5 2.2-2.6 5.1-3.9 8.7-3.9 3.4 0 6.1 1.1 8.1 3.4s3 5.2 3 8.9v2.6h-18.8c.1 3.2.9 5.6 2.4 7.3 1.5 1.7 3.7 2.5 6.5 2.5 2.9 0 5.8-.6 8.7-1.8v3.7c-1.5.6-2.8 1.1-4.1 1.4-1.3.1-2.9.3-4.7.3zm-1.2-24.9c-2.2 0-3.9.7-5.2 2.1-1.3 1.4-2.1 3.4-2.3 5.9h14.3c0-2.6-.6-4.6-1.7-6-1.2-1.3-2.9-2-5.1-2z"/>
  <path class="logo-small-st1" d="M538.4 113.6c3.3 0 5.9 1.3 7.7 3.8s2.8 6.1 2.8 10.6c0 4.6-1 8.2-2.9 10.7s-4.5 3.8-7.8 3.8-5.8-1.2-7.7-3.6h-.5l-1.3 3.1h-5.8v-38.8h7.6v9c0 1.1-.1 3-.3 5.5h.3c1.8-2.7 4.4-4.1 7.9-4.1zm-2.5 6.1c-1.9 0-3.2.6-4.1 1.7-.9 1.2-1.3 3.1-1.3 5.7v.8c0 3 .4 5.1 1.3 6.4.9 1.3 2.3 1.9 4.2 1.9 1.6 0 2.8-.7 3.7-2.2s1.4-3.5 1.4-6.3-.5-4.8-1.4-6.2c-.9-1.1-2.1-1.8-3.8-1.8zm19.7-12.8c0-2.5 1.4-3.7 4.1-3.7 2.8 0 4.1 1.2 4.1 3.7 0 1.2-.3 2.1-1 2.8-.7.7-1.7 1-3.1 1-2.7 0-4.1-1.3-4.1-3.8zm8 35.1H556v-27.9h7.6V142zm6.5 12.2c-1.9 0-3.6-.2-5-.6v-6c1.2.3 2.4.5 3.6.5 1.3 0 2.2-.4 2.8-1.1.6-.7.9-1.8.9-3.2v-29.7h7.6V145c0 3-.9 5.2-2.6 6.8-1.8 1.6-4.2 2.4-7.3 2.4zm1.9-47.3c0-2.5 1.4-3.7 4.1-3.7s4.1 1.2 4.1 3.7c0 1.2-.3 2.1-1 2.8-.7.7-1.7 1-3.1 1-2.7 0-4.1-1.3-4.1-3.8z"/>
  <path class="logo-small-st1" d="M656.1 143.9h-7.6v-38.8h7.6v38.8zm20.3-22.9c-1.6 0-2.9.5-3.8 1.5-.9 1-1.4 2.5-1.6 4.3h10.7c0-1.9-.5-3.3-1.5-4.3-.9-1-2.2-1.5-3.8-1.5zm1 23.4c-4.5 0-8-1.2-10.5-3.7s-3.8-6-3.8-10.5c0-4.7 1.2-8.3 3.5-10.8s5.6-3.8 9.7-3.8c3.9 0 7 1.1 9.2 3.4 2.2 2.2 3.3 5.3 3.3 9.3v3.7h-18c.1 2.2.7 3.8 1.9 5.1s2.9 1.8 5 1.8c1.7 0 3.3-.2 4.8-.5s3.1-.9 4.7-1.7v5.9c-1.3.7-2.7 1.2-4.3 1.5-1.4.2-3.3.3-5.5.3zm37.8-8.7c0 2.9-1 5-3 6.5s-5 2.2-8.9 2.2c-2 0-3.8-.1-5.2-.4-1.4-.3-2.8-.7-4-1.2v-6.3c1.4.7 3 1.2 4.8 1.7 1.8.4 3.3.7 4.7.7 2.8 0 4.1-.8 4.1-2.4 0-.6-.2-1.1-.5-1.5-.4-.4-1-.8-1.9-1.3-.9-.5-2.1-1-3.6-1.7-2.1-.9-3.7-1.7-4.7-2.5s-1.7-1.6-2.2-2.6c-.5-1-.7-2.2-.7-3.6 0-2.5 1-4.4 2.9-5.7 1.9-1.4 4.6-2 8.2-2 3.4 0 6.6.7 9.8 2.2l-2.3 5.5c-1.4-.6-2.7-1.1-3.9-1.5-1.2-.4-2.4-.6-3.7-.6-2.2 0-3.4.6-3.4 1.8 0 .7.4 1.3 1.1 1.8.7.5 2.3 1.2 4.7 2.2 2.2.9 3.8 1.7 4.8 2.5s1.8 1.6 2.2 2.6.7 2.2.7 3.6z"/>
  <path class="logo-small-st1" d="M728.8 144.4h-1.6v-12.3h-4.4v-1.4h10.3v1.4h-4.4v12.3zm12.8 0l-4.7-12.2h-.1c.1 1 .1 2.1.1 3.4v8.7h-1.5v-13.7h2.4l4.4 11.3h.1l4.4-11.3h2.4v13.7h-1.6v-8.9c0-1 0-2.1.1-3.3h-.1l-4.7 12.2h-1.2z"/>
</svg>
