<svg id="Layer_1" data-name="Layer 1" xmlns="http://www.w3.org/2000/svg" viewBox="0 0 496.53 425.23">
  <defs>
    <style>
      .cls-1{fill:#98002e}.cls-2{fill:#695e4a}.cls-3{fill:#726658}
    </style>
  </defs>
  <path class="cls-1" d="M39.69 179.68q-5 0-11.16.53t-11.87.53a52 52 0 01-10.1-.88c-2.95-.59-4.79-1.83-5.5-3.72q-2.12-1.77 0-4.08c1.42-1.54 2.72-2.89 3.9-4.08q6.74-.71 11.7-1.06c3.31-.23 6.38-.53 9.21-.88s5.55-.71 8.15-1.07 5.32-.76 8.16-1.24q5.31-19.84 9.92-37.92T61 90q4.24-17.72 8.33-35.79T78 16.3q3.19-4.61 5.32-4.79a51.67 51.67 0 017.09.18Q92.5 23 93.57 30.83c.71 5.19 1.35 10.45 2 15.77s1.29 11.22 2.12 17.72S99.59 79 101 89q1.41 15.24 3.9 30t4.25 30.3q9.21-1.41 17.72-3l15.06-2.84q6.56-1.23 10.64-1.95c2.71-.47 4.07-.58 4.07-.35q1.07 3.19-3.36 6.2a68 68 0 01-11.52 6q-7.1 3-15.24 5.68T112 163.73q.7 6.74 2.48 16.84T118.2 202q1.93 11.34 4.07 22.86t3.73 20.92q1.59 9.38 2.3 15.59t0 6.92q-6 .7-8.68-1.25a26.13 26.13 0 00-6.56-3.36q-2.83-23.4-7.06-47.68t-6.73-48.38q-8.16 1.77-20.74 4.78t-26 5.15q-2.12 7.8-3.89 17.36T45 213.17q-1.77 8.7-3 15.6c-.83 4.6-1.6 7.62-2.31 9-1.18 1.19-3.25 1.95-6.2 2.31a8.29 8.29 0 01-7.26-2.31 65.54 65.54 0 011.59-9.74q1.61-7.62 3.73-16.84T36 193.32q2.28-8.67 3.69-13.64zm17-17.37Q62 161.25 68.4 160c4.26-.83 8.21-1.71 11.88-2.66s6.85-1.71 9.56-2.3a32.43 32.43 0 004.79-1.24q-.72-7.8-1.24-12.94c-.35-3.42-.71-7-1.06-10.81s-.78-8.2-1.25-13.29S89.9 104.78 89 96q-2.85-22.33-4.08-33.32t-2.3-7.08q-5 19.13-8.68 33.13T67.2 114.6q-3 11.88-5.49 23.22t-5 24.49zM274 60.6q-1.1 6.4-2.52 13.47t-3 13.46q-1.59 6.39-2.65 11c-.71 3.07-1.19 5-1.42 5.67q-2.13 6-5.67 15.6t-8.33 20q-4.78 10.45-10.81 20.91a119 119 0 01-12.4 17.9q0 5.31 1.24 17.9t3 27.11q1.77 14.53 3.37 28.53t1.93 21.85q-1.77 1.77-3.18-.7t-4.26-8.51q-2.12-9.23-3.36-17T223.63 232q-1.06-8-2.3-16.84t-3.72-20.2q-6.75 8.51-16.13 19.32A164.41 164.41 0 01182 233.37q-10.11 8.34-19.85 11.7t-16.84-3a19.24 19.24 0 01-3.72-13.29 44.3 44.3 0 014.26-15.6 89.42 89.42 0 019.57-15.77q5.84-7.78 11.87-14.53t11.34-11.69c3.55-3.31 6.14-5.67 7.8-7.09q5-3.19 8.33-5.14t6-3.19a23.1 23.1 0 015.5-1.78 27.58 27.58 0 017.08-.17q-.71-8.15-.88-19.5t0-22.85q.17-11.52.71-21.45a113.47 113.47 0 011.59-15.24 78 78 0 013.37-16.3A104.58 104.58 0 01224.87 42a83.42 83.42 0 019-14.18A29.93 29.93 0 01244.72 19a18.49 18.49 0 0112-1.24Q263 19.13 269 26.57q5 6 5 15.07zm-98.21 127.59q-9.57 9.92-14 18.25a156.4 156.4 0 00-7.27 15.42v3.36a18.34 18.34 0 00.53 4.43 7.94 7.94 0 002.13 3.72q1.59 1.6 5.14.89a38.19 38.19 0 005.85-2.84 39.19 39.19 0 004.25-3c1.3-1.06 2.71-2.18 4.25-3.37s3.48-2.71 5.85-4.6q4.95-5.31 12.23-12.05a102.63 102.63 0 0012.76-14.18 41.09 41.09 0 007.26-15.22q1.77-7.78-4.61-15.24a20.11 20.11 0 00-5.14.71 23.29 23.29 0 00-6.55 3.37 102.7 102.7 0 00-9.39 7.44q-5.5 4.72-13.29 12.91zm51.39-33a76.24 76.24 0 0010.63-15.07q4.24-8 9.57-19a130 130 0 008.33-24.45 202.18 202.18 0 005.13-29.24 109.31 109.31 0 000-25q-1.41-10.64-7.08-11.34-5-.7-9.22 3.72a50.92 50.92 0 00-7.8 11 87.59 87.59 0 00-6 14A102 102 0 00227.18 73a123.17 123.17 0 00-2 12.76q-.54 5.67-.71 11.87T224 111.1q-.36 7.28-1.42 17.9a105.08 105.08 0 00.53 10.63 68.83 68.83 0 001.42 9 53.19 53.19 0 001.59 5.67c.46 1.34.82 1.63 1.06.93zM306.92 173.65c0 .71.35 4 1.06 9.93s1.54 13.11 2.48 21.62 2.07 17.66 3.37 27.47 2.48 19.13 3.55 28 2.06 16.66 3 23.4 1.53 11 1.77 12.93c-1.42-.24-2.6-.47-3.54-.71a6.3 6.3 0 01-2.84-1.77 37.18 37.18 0 01-3.37-4.07q-1.95-2.67-5.49-7.63-4.6-32.61-7.27-56.88t-4.43-39.52a121.14 121.14 0 01-9.21 11.33c-1.89 1.9-3.07 2.84-3.55 2.84-.71 0-.82-1.06-.35-3.19.24-1.18.48-2.36.71-3.54s.48-2.25.71-3.19a8 8 0 011.06-2.48 74.28 74.28 0 004.42-7.09 48.3 48.3 0 003-6.38 45.1 45.1 0 002.13-6.74c-.24-2.59-.41-4.84-.53-6.73s-.18-3.84-.18-5.85-.06-4.07-.18-6.2-.17-4.84-.17-8.15v-34.91q0-11.51.35-24.28t.89-24.28q.53-11.51 1.41-20.91a132.36 132.36 0 012-14.35q2.45-10.32 7.61-15.77c3.41-3.66 7-5.79 10.8-6.38A15.28 15.28 0 01327.3 3q5.49 3.74 8.33 11.52 3.18 7.8 3.19 20.2a190.11 190.11 0 01-2.13 27.12q-2.13 14.7-5.85 30.65t-8 31q-4.26 15.06-8.51 28.17t-7.41 21.99zm-2.84-20.2a496.64 496.64 0 0014.54-50.86q5.65-25 8.32-44.83t1.78-32.07q-.9-12.23-5.14-12.59-6.74-2.47-10.64 4.61t-6.2 19.85a217.75 217.75 0 00-3 29.24q-.71 16.49-.53 32.78t.53 30.84q.33 14.58.34 23.03zM361.49 146.72c.71-.23 2.71-.89 6-1.95s6-1.24 8.15-.53q10.27-.36 15.77 5.31t.89 22q-6.74 18.08-17.9 30.12a176.41 176.41 0 01-26.41 23q3.54 9.23 10.64 10.28a27.07 27.07 0 0014.88-2.3 73 73 0 0015.24-9q7.44-5.67 12.05-9.93 7.44-6.37 11.87-10.8a116 116 0 009.4-10.82c.71-.47 1.11-.4 1.24.18a7.49 7.49 0 01-.18 2.66q-.36 1.77-1.06 5-1.07 2.49-2.13 4.43a27 27 0 01-3 4.26c-1.3 1.53-3 3.36-5.14 5.49s-4.73 5-7.8 8.51q-5.31 5-10.28 9.74a68.8 68.8 0 01-10.45 8.33 36.13 36.13 0 01-12.05 5 40 40 0 01-15.06 0 50.9 50.9 0 01-11.35-5.31 26.93 26.93 0 01-6.55-5.85 26.55 26.55 0 01-3.37-5.49 22 22 0 01-1.42-4.26q-1.77-7.08-1.41-19.14t7.08-31.19a89 89 0 019.93-16.83 39.69 39.69 0 0112.42-10.91zm-15.59 62.73a103.2 103.2 0 0010.81-6.91 79.08 79.08 0 0011.69-10.28 69.35 69.35 0 009.6-12.94 32.43 32.43 0 004.43-14.88c.71-3.54.59-6-.35-7.44-.48-.71-.95-1.07-1.42-1.07q-6-2.82-12.05 1.77a44.45 44.45 0 00-11 13.12 95.93 95.93 0 00-8.33 19 64.44 64.44 0 00-3.38 19.63z"/>
  <path class="cls-1" d="M419.26 135q-.35-3.18 3.37-1.59c2.49 1.06 5 2.19 7.62 3.37.94 5.44 1.65 9.74 2.13 12.93s.83 6.2 1.06 9 .48 5.91.71 9.21.59 7.69 1.06 13.12A79 79 0 01443 166a43.7 43.7 0 0111.87-11.88 50.46 50.46 0 0117.37-7.26q10.1-2.31 24.28-1.6a6.54 6.54 0 01-1.95 4.79q-1.95 1.95-9 3a45.46 45.46 0 00-17.9 6.91 60.53 60.53 0 00-13.11 11.87 62.44 62.44 0 00-8.86 14.36q-3.37 7.62-5.49 14-.36 3.18-.89 9t-.71 12.4l-.35 12.76a44.94 44.94 0 00.53 9.74 2.28 2.28 0 01-1.6 2.66 16.3 16.3 0 01-4.43 1.24 10 10 0 01-4.6-.35c-1.42-.48-2.13-1.3-2.13-2.48q.71-36.51-1.95-62.91T419.26 135z"/>
  <path class="cls-2" d="M173.56 412.68l-19.24 9.74 4-21.19-15.21-15.29 21.38-2.78 9.82-19.16 9.25 19.48 21.28 3.41-15.66 14.81 3.32 21.3-18.94-10.34zm15.28 5.13l-2.67-17.14 12.6-11.92-17.12-2.75-7.44-15.67-7.58 14.78-.34.65-17.2 2.24 12.24 12.3-3.2 17 15.48-7.84 15.23 8.31zM242.82 412.67l-19.24 9.75 4-21.2-15.19-15.28 21.37-2.78 9.8-19.16 9.24 19.48 21.3 3.41-15.67 14.81 3.32 21.3-18.93-10.35zm15.27 5.14l-2.67-17.14L268 388.75 250.89 386l-7.43-15.67-7.58 14.78-.34.65-17.2 2.24 12.23 12.29-3.19 17 15.48-7.84 15.23 8.31zM312.06 412.68l-19.25 9.74 4-21.19-15.21-15.29 21.4-2.78 9.81-19.16 9.25 19.48 21.28 3.41-15.67 14.81L331 423l-18.94-10.34zm15.28 5.13l-2.67-17.14 12.6-11.92-17.12-2.75-7.45-15.67-7.57 14.78-.34.65-17.2 2.24 12.23 12.29-3.19 17 15.48-7.84 15.23 8.31z"/>
  <path class="cls-3" d="M19.72 300.93h29v5.84h-22v17.92h20.36v5.76H26.76v24.4h-7zM82.12 345.57a65 65 0 00.56 9.28h-6.32L75.8 350h-.24a14.42 14.42 0 01-11.84 5.76c-7.84 0-11.84-5.52-11.84-11.12 0-9.36 8.32-14.48 23.28-14.4v-.8c0-3.12-.88-9-8.8-8.88a18.66 18.66 0 00-10.16 2.88l-1.6-4.72a25.07 25.07 0 0112.8-3.36c11.84 0 14.72 8.08 14.72 15.76zm-6.8-10.48c-7.68-.16-16.4 1.2-16.4 8.72 0 4.64 3 6.72 6.56 6.72a9.77 9.77 0 009.52-6.48 8 8 0 00.32-2.24zM93.48 326.61c0-4.08-.16-7.28-.32-10.48h6.16l.32 6.32h.24a13.38 13.38 0 0112.24-7.12 11.42 11.42 0 0110.88 7.76h.16a15.28 15.28 0 014.4-5 13 13 0 018.48-2.72c5.2 0 12.8 3.36 12.8 16.8v22.72H142V333c0-7.52-2.8-11.92-8.4-11.92-4.08 0-7.12 3-8.4 6.32a12 12 0 00-.56 3.52v23.92h-6.88v-23.2c0-6.16-2.72-10.56-8.08-10.56-4.32 0-7.6 3.52-8.72 7a9.41 9.41 0 00-.56 3.44v23.28h-6.92zM168 305.25a4.2 4.2 0 01-4.48 4.32 4.14 4.14 0 01-4.24-4.32 4.29 4.29 0 014.4-4.4 4.22 4.22 0 014.32 4.4zm-7.84 49.6v-38.72h7v38.72zM178.92 298.05h7v56.8h-7zM205.64 305.25a4.2 4.2 0 01-4.48 4.32 4.14 4.14 0 01-4.24-4.32 4.29 4.29 0 014.4-4.4 4.22 4.22 0 014.32 4.4zm-7.84 49.6v-38.72h7v38.72zM220.44 336.77c.16 9.52 6.16 13.44 13.28 13.44a25.18 25.18 0 0010.72-2l1.28 5a31.54 31.54 0 01-13 2.48c-11.92 0-19-7.92-19-19.6s6.88-20.8 18.16-20.8c12.72 0 16 11 16 18.16a17.16 17.16 0 01-.24 3.28zm20.64-5c.08-4.4-1.84-11.36-9.76-11.36-7.2 0-10.24 6.48-10.8 11.36zM256.6 326.61c0-4.08-.08-7.28-.32-10.48h6.24l.4 6.4h.16a14.34 14.34 0 0112.8-7.2c5.36 0 13.68 3.2 13.68 16.48v23h-7v-22.28c0-6.24-2.32-11.44-9-11.44a10.32 10.32 0 00-9.92 10.48v23.28h-7zM301 298.05h7v24.24h.16a13.26 13.26 0 015-5 14.43 14.43 0 017.2-1.92c5.2 0 13.52 3.2 13.52 16.48v23h-7v-22.24c0-6.24-2.32-11.44-9-11.44a10.23 10.23 0 00-9.44 7 9 9 0 00-.48 3.36v23.36h-7zM380.44 335.17c0 14.32-10 20.56-19.28 20.56-10.4 0-18.56-7.68-18.56-19.92 0-12.88 8.56-20.48 19.2-20.48 11.12 0 18.64 8.08 18.64 19.84zm-30.64.4c0 8.48 4.8 14.88 11.68 14.88 6.72 0 11.76-6.32 11.76-15 0-6.56-3.28-14.8-11.6-14.8s-11.84 7.64-11.84 14.92zM397.8 306.85v9.28h10.08v5.36H397.8v20.88c0 4.8 1.36 7.52 5.28 7.52a13.14 13.14 0 004.08-.48l.32 5.36a19.19 19.19 0 01-6.24 1 10 10 0 01-7.6-3c-1.92-2.16-2.72-5.6-2.72-10.16v-21.12h-6v-5.36h6v-7.2zM419.24 336.77c.16 9.52 6.16 13.44 13.28 13.44a25.18 25.18 0 0010.72-2l1.28 5a31.54 31.54 0 01-13 2.48c-11.92 0-19-7.92-19-19.6s6.88-20.8 18.16-20.8c12.72 0 16 11 16 18.16a17.16 17.16 0 01-.24 3.28zm20.64-5c.08-4.4-1.84-11.36-9.76-11.36-7.2 0-10.24 6.48-10.8 11.36zM455.4 298.05h7v56.8h-7zM352 415.87a23.6 23.6 0 0012.4 3.52c7.12 0 11.28-3.76 11.28-9.2 0-5-2.88-7.92-10.16-10.64-8.8-3.2-14.24-7.84-14.24-15.36 0-8.4 7-14.64 17.44-14.64 5.44 0 9.52 1.28 11.84 2.64l-1.92 5.68a20 20 0 00-10.16-2.56c-7.36 0-10.16 4.4-10.16 8.08 0 5 3.28 7.52 10.72 10.4 9.12 3.52 13.68 7.92 13.68 15.84 0 8.32-6.08 15.6-18.8 15.6-5.2 0-10.88-1.6-13.76-3.52z"/>
</svg>
