<svg xmlns="http://www.w3.org/2000/svg" viewBox="0 0 300 300">
  <defs>
    <style>
      .logo-large-cls-1 { fill: #f95a09; } .logo-large-cls-2 { fill: #fff; } .logo-large-cls-3 { fill: #fedece; }
    </style>
  </defs>
  <title>
    Logo Haarlem bijdeles
  </title>
  <path class="logo-large-cls-1" d="M0 0h300v300H0z"/>
  <path class="logo-large-cls-2" d="M268.93 105.14L273 58.65l13 1.13-7.15 81.69h-.07q-.06 1.49-.19 3a63 63 0 1 1-9.61-39.32zM15.87 118.47h-.07L23 36.78l13 1.13-4.16 46.49a63 63 0 1 1-16.29 37.05q.13-1.45.32-2.98zm58.07 58.28a50 50 0 1 0-45.45-54.17 50 50 0 0 0 45.46 54.17zm137.47 12A50 50 0 1 0 166 134.61a50 50 0 0 0 45.42 54.17z"/>
  <path class="logo-large-cls-3" d="M58.52 256.75v-9a3.63 3.63 0 0 0-.77-2.54 3.15 3.15 0 0 0-2.42-.84 4 4 0 0 0-3.21 1.19 6 6 0 0 0-1 3.91v7.27H49V237h2.11v6a13 13 0 0 1-.1 1.79h.13a4.3 4.3 0 0 1 1.77-1.58 5.76 5.76 0 0 1 2.62-.58 5.37 5.37 0 0 1 3.83 1.21 5.11 5.11 0 0 1 1.28 3.85v9.08zm15.39 0l-.42-2h-.1a5.86 5.86 0 0 1-2.08 1.77 6.33 6.33 0 0 1-2.58.46 4.65 4.65 0 0 1-3.24-1.07 3.89 3.89 0 0 1-1.17-3q0-4.21 6.74-4.42l2.36-.08v-.86a3.53 3.53 0 0 0-.7-2.42 2.9 2.9 0 0 0-2.25-.78 9.18 9.18 0 0 0-3.94 1.07l-.65-1.61a9.9 9.9 0 0 1 2.25-.88 9.76 9.76 0 0 1 2.46-.32 5.3 5.3 0 0 1 3.69 1.1 4.61 4.61 0 0 1 1.2 3.54v9.5zm-4.76-1.49a4.28 4.28 0 0 0 3.09-1.08 4 4 0 0 0 1.12-3v-1.26l-2.11.09a7.67 7.67 0 0 0-3.62.78 2.35 2.35 0 0 0-1.11 2.15 2.17 2.17 0 0 0 .69 1.74 2.87 2.87 0 0 0 1.94.59zm19.62 1.49l-.42-2h-.1a5.86 5.86 0 0 1-2.08 1.77 6.33 6.33 0 0 1-2.58.46 4.65 4.65 0 0 1-3.24-1.07 3.89 3.89 0 0 1-1.17-3q0-4.21 6.74-4.42l2.36-.08v-.86a3.53 3.53 0 0 0-.7-2.42 2.9 2.9 0 0 0-2.25-.78 9.18 9.18 0 0 0-3.94 1.07l-.65-1.61a9.9 9.9 0 0 1 2.25-.88 9.76 9.76 0 0 1 2.46-.32 5.3 5.3 0 0 1 3.69 1.1 4.61 4.61 0 0 1 1.2 3.54v9.5zM84 255.27a4.28 4.28 0 0 0 3.09-1.08 4 4 0 0 0 1.12-3v-1.26l-2.11.09a7.67 7.67 0 0 0-3.62.78 2.35 2.35 0 0 0-1.11 2.15 2.17 2.17 0 0 0 .69 1.74 2.87 2.87 0 0 0 1.94.58zm17.41-12.68a8.25 8.25 0 0 1 1.66.15l-.29 2a7.18 7.18 0 0 0-1.52-.19 3.71 3.71 0 0 0-2.89 1.37 5 5 0 0 0-1.2 3.42v7.46h-2.09v-13.96h1.74l.24 2.58h.1a6.12 6.12 0 0 1 1.84-2.1 4.2 4.2 0 0 1 2.43-.73zm6.77 14.17h-2.11V237h2.11zm10.75.25a6.39 6.39 0 0 1-4.87-1.88 7.27 7.27 0 0 1-1.78-5.22 8.07 8.07 0 0 1 1.66-5.34 5.5 5.5 0 0 1 4.45-2 5.25 5.25 0 0 1 4.14 1.72 6.59 6.59 0 0 1 1.52 4.54v1.33h-9.58a5.52 5.52 0 0 0 1.24 3.72 4.28 4.28 0 0 0 3.31 1.27 11.21 11.21 0 0 0 4.44-.94v1.88a11.15 11.15 0 0 1-2.11.69 11.88 11.88 0 0 1-2.4.22zm-.57-12.66a3.44 3.44 0 0 0-2.67 1.09 5 5 0 0 0-1.17 3h7.27a4.63 4.63 0 0 0-.89-3.05 3.13 3.13 0 0 0-2.53-1.04zm27.42 12.4v-9.05a3.76 3.76 0 0 0-.71-2.49 2.75 2.75 0 0 0-2.21-.83 3.57 3.57 0 0 0-2.91 1.13A5.37 5.37 0 0 0 139 249v7.77h-2.11v-9.07a3.76 3.76 0 0 0-.71-2.49 2.77 2.77 0 0 0-2.22-.83 3.44 3.44 0 0 0-2.9 1.19 6.42 6.42 0 0 0-.92 3.89v7.3h-2.11v-13.92h1.71l.34 1.9h.1a4.14 4.14 0 0 1 1.68-1.59 5.14 5.14 0 0 1 2.43-.57q3.26 0 4.27 2.36h.1a4.44 4.44 0 0 1 1.8-1.73 5.59 5.59 0 0 1 2.69-.63 4.71 4.71 0 0 1 3.54 1.21 5.42 5.42 0 0 1 1.17 3.88v9.08zm49.84-1.87h-.11a5 5 0 0 1-4.37 2.12 5.17 5.17 0 0 1-4.25-1.87 8.21 8.21 0 0 1-1.52-5.31 8.35 8.35 0 0 1 1.52-5.34 5.13 5.13 0 0 1 4.24-1.9 5.06 5.06 0 0 1 4.34 2.06h.17l-.09-1-.05-1V237h2.11v19.75h-1.71zm-4.21.36a3.84 3.84 0 0 0 3.13-1.17 5.93 5.93 0 0 0 1-3.79v-.44a7 7 0 0 0-1-4.22 3.74 3.74 0 0 0-3.14-1.26 3.23 3.23 0 0 0-2.84 1.44 7.16 7.16 0 0 0-1 4.07 6.87 6.87 0 0 0 1 4 3.31 3.31 0 0 0 2.86 1.37zm17 1.76a6.39 6.39 0 0 1-4.87-1.88 7.27 7.27 0 0 1-1.78-5.22 8.07 8.07 0 0 1 1.66-5.34 5.5 5.5 0 0 1 4.45-2 5.25 5.25 0 0 1 4.14 1.72 6.59 6.59 0 0 1 1.52 4.54v1.33h-9.63a5.52 5.52 0 0 0 1.24 3.72 4.28 4.28 0 0 0 3.31 1.27 11.21 11.21 0 0 0 4.44-.94v1.88a11.15 11.15 0 0 1-2.11.69 11.88 11.88 0 0 1-2.41.23zm-.57-12.66a3.44 3.44 0 0 0-2.67 1.09 5 5 0 0 0-1.17 3h7.27a4.63 4.63 0 0 0-.89-3.05 3.13 3.13 0 0 0-2.58-1.03z"/>
  <path class="logo-large-cls-2" d="M160.9 242.29a4.59 4.59 0 0 1 3.94 2 9 9 0 0 1 1.42 5.38 8.84 8.84 0 0 1-1.47 5.45 5.12 5.12 0 0 1-7.92.11h-.27l-.65 1.56h-3V237h3.87v4.6q0 .88-.15 2.81h.15a4.48 4.48 0 0 1 4.08-2.12zm-1.24 3.1a2.44 2.44 0 0 0-2.09.88 5.07 5.07 0 0 0-.69 2.91v.42a6 6 0 0 0 .68 3.28 2.42 2.42 0 0 0 2.15 1 2.16 2.16 0 0 0 1.9-1.1 5.94 5.94 0 0 0 .7-3.19 5.63 5.63 0 0 0-.71-3.14 2.23 2.23 0 0 0-1.95-1.06zm10-6.5q0-1.89 2.11-1.89t2.11 1.89a1.84 1.84 0 0 1-.53 1.4 2.21 2.21 0 0 1-1.58.5q-2.08.01-2.08-1.9zm4 17.86h-3.87v-14.19h3.87zM177 263a9 9 0 0 1-2.55-.32v-3a6.9 6.9 0 0 0 1.82.24 1.75 1.75 0 0 0 1.43-.55 2.48 2.48 0 0 0 .45-1.61v-15.2h3.87v15.73a4.54 4.54 0 0 1-1.31 3.48A5.22 5.22 0 0 1 177 263zm1-24.11q0-1.89 2.11-1.89t2.11 1.89a1.84 1.84 0 0 1-.53 1.4 2.21 2.21 0 0 1-1.58.5q-2.11.01-2.11-1.9zM220.87 257.75H217V238h3.87zM231.21 246a2.46 2.46 0 0 0-1.93.78 3.61 3.61 0 0 0-.8 2.22h5.43a3.23 3.23 0 0 0-.75-2.22 2.54 2.54 0 0 0-1.95-.78zm.55 12a7.33 7.33 0 0 1-5.36-1.89 7.16 7.16 0 0 1-1.93-5.36 7.88 7.88 0 0 1 1.78-5.52 6.35 6.35 0 0 1 4.93-1.95 6.25 6.25 0 0 1 4.68 1.71 6.48 6.48 0 0 1 1.68 4.74v1.88h-9.15a3.73 3.73 0 0 0 1 2.58 3.44 3.44 0 0 0 2.56.93 10.65 10.65 0 0 0 2.42-.27 12.13 12.13 0 0 0 2.39-.85v3a9.09 9.09 0 0 1-2.17.76 13.69 13.69 0 0 1-2.83.24zm19.24-4.46a3.91 3.91 0 0 1-1.52 3.33 7.5 7.5 0 0 1-4.54 1.14 14.25 14.25 0 0 1-2.64-.21 10 10 0 0 1-2-.62V254a13.5 13.5 0 0 0 2.43.85 9.84 9.84 0 0 0 2.38.34q2.11 0 2.11-1.22a1 1 0 0 0-.28-.74 4 4 0 0 0-1-.65q-.69-.36-1.83-.84a11.48 11.48 0 0 1-2.41-1.27 3.57 3.57 0 0 1-1.12-1.34 4.42 4.42 0 0 1-.35-1.86 3.37 3.37 0 0 1 1.47-2.93 7.14 7.14 0 0 1 4.16-1 11.8 11.8 0 0 1 5 1.12l-1.17 2.79q-1.07-.46-2-.75a6.26 6.26 0 0 0-1.89-.29q-1.71 0-1.71.93a1.09 1.09 0 0 0 .55.9 15 15 0 0 0 2.42 1.13 11.23 11.23 0 0 1 2.44 1.26 3.72 3.72 0 0 1 1.14 1.35 4.14 4.14 0 0 1 .36 1.76zM257.93 258h-.81v-6.28h-2.22V251h5.25v.72h-2.22zm6.52 0l-2.37-6.21q.07.74.07 1.75V258h-.75v-7h1.23l2.22 5.77 2.24-5.77h1.22v7h-.81v-4.51q0-.78.07-1.69l-2.39 6.2z"/>
</svg>
