<svg xmlns="http://www.w3.org/2000/svg" viewBox="0 0 496.53 423.02">
  <defs>
    <style>
      .logo-cls-1{fill: #69614e}.logo-cls-2{fill: #990a2c}
    </style>
  </defs>
  <path class="logo-cls-1" d="M8.22 296.9h4.32V315h22v-18.1h4.32v43.19h-4.33v-20.85h-22v20.85H8.22zM69.82 307.32a15.78 15.78 0 0 1 12.23 5.35 17.13 17.13 0 0 1-.25 23.24 15.66 15.66 0 0 1-12 5 15.7 15.7 0 0 1-12-5 17.12 17.12 0 0 1-.25-23.21 15.85 15.85 0 0 1 12.27-5.38zm0 4a11.87 11.87 0 0 0-8.82 3.81 12.7 12.7 0 0 0-3.68 9.17 13 13 0 0 0 1.68 6.45 11.89 11.89 0 0 0 4.54 4.63 12.89 12.89 0 0 0 12.55 0 12 12 0 0 0 4.54-4.63 13.06 13.06 0 0 0 1.67-6.45 12.66 12.66 0 0 0-3.69-9.17 11.9 11.9 0 0 0-8.81-3.78zM103.67 296.28h4.11v11.87h6.52v3.55h-6.52v28.39h-4.11V311.7h-5.61v-3.55h5.61zM153.37 329.49l3.46 1.82a18.45 18.45 0 0 1-3.94 5.4 15.64 15.64 0 0 1-5 3.13 17.42 17.42 0 0 1-6.32 1.07q-7.81 0-12.23-5.12a17.34 17.34 0 0 1-4.4-11.59 17.06 17.06 0 0 1 3.73-10.83 15.27 15.27 0 0 1 12.67-6.05 15.75 15.75 0 0 1 13 6.2 17.26 17.26 0 0 1 3.53 10.92h-28.73a13 13 0 0 0 3.56 9.12 11.32 11.32 0 0 0 8.5 3.57 13.84 13.84 0 0 0 4.75-.85 12.6 12.6 0 0 0 3.92-2.26 19 19 0 0 0 3.5-4.53zm0-8.6a13.66 13.66 0 0 0-2.4-5.26 11.29 11.29 0 0 0-4.16-3.17 12.74 12.74 0 0 0-5.44-1.2 11.68 11.68 0 0 0-8.08 3 13.7 13.7 0 0 0-3.74 6.61zM171 295.81h4.11v44.28H171zM254.62 304.15l-3.35 3.17a25.64 25.64 0 0 0-7.91-5.39 21.33 21.33 0 0 0-8.36-1.83 20.05 20.05 0 0 0-9.68 2.49 18.15 18.15 0 0 0-7.12 6.77 17.51 17.51 0 0 0-2.52 9 17.88 17.88 0 0 0 2.61 9.27 18.65 18.65 0 0 0 7.22 6.9 20.86 20.86 0 0 0 10.1 2.51 17.29 17.29 0 0 0 11.28-3.76 14.88 14.88 0 0 0 5.46-9.75h-13.79v-4.17h18.61q-.06 10-5.94 15.9t-15.76 5.89q-12 0-19-8.16a21.74 21.74 0 0 1-5.37-14.54 22.22 22.22 0 0 1 3.08-11.42 21.9 21.9 0 0 1 8.46-8.27 24.68 24.68 0 0 1 12.15-3 27.12 27.12 0 0 1 10.34 2 31.08 31.08 0 0 1 9.49 6.39zM302.56 308.15v31.94h-4.05v-5.49a17.73 17.73 0 0 1-5.8 4.73 16.22 16.22 0 0 1-18.62-3.33 16.48 16.48 0 0 1-4.8-12 16.23 16.23 0 0 1 4.85-11.81 15.82 15.82 0 0 1 11.66-4.9 15.05 15.05 0 0 1 7.12 1.68 16.23 16.23 0 0 1 5.59 5v-5.87zm-16.43 3.14a12.37 12.37 0 0 0-10.95 6.42 12.89 12.89 0 0 0 0 12.9 12.53 12.53 0 0 0 4.64 4.8 12.19 12.19 0 0 0 6.26 1.72 12.79 12.79 0 0 0 6.4-1.71 12 12 0 0 0 4.65-4.6 13.22 13.22 0 0 0 1.63-6.54 12.71 12.71 0 0 0-3.66-9.27 12.09 12.09 0 0 0-8.97-3.72zM333.88 311.64l-2.64 2.73q-3.3-3.19-6.45-3.2a4.88 4.88 0 0 0-3.43 1.32 4.09 4.09 0 0 0-1.43 3.08 4.6 4.6 0 0 0 1.18 3 16.64 16.64 0 0 0 4.95 3.37c3.06 1.59 5.13 3.12 6.24 4.58a8.45 8.45 0 0 1 1.61 5 9 9 0 0 1-2.76 6.66 9.45 9.45 0 0 1-6.91 2.73 12.07 12.07 0 0 1-5.28-1.2 11.42 11.42 0 0 1-4.16-3.32l2.58-2.94q3.15 3.56 6.68 3.56a6 6 0 0 0 4.21-1.59 4.88 4.88 0 0 0 1.74-3.73 4.81 4.81 0 0 0-1.15-3.14 18.15 18.15 0 0 0-5.18-3.4c-2.88-1.49-4.85-3-5.89-4.41a8.28 8.28 0 0 1-1.55-5 8 8 0 0 1 2.48-6 8.69 8.69 0 0 1 6.28-2.41q4.41-.01 8.88 4.31zM350.76 296.28h4.11v11.87h6.52v3.55h-6.52v28.39h-4.11V311.7h-5.61v-3.55h5.61zM373.57 295.81h4.11v18.06a17.47 17.47 0 0 1 5.49-4.92 13.33 13.33 0 0 1 6.49-1.63 11.3 11.3 0 0 1 6.35 1.82 10.93 10.93 0 0 1 4.1 4.89c.88 2.05 1.32 5.25 1.32 9.62v16.44h-4.11v-15.24a39.28 39.28 0 0 0-.44-7.37 8.38 8.38 0 0 0-2.77-4.77 8.2 8.2 0 0 0-5.27-1.6 10.09 10.09 0 0 0-6.68 2.47 11.57 11.57 0 0 0-3.9 6.1 42.55 42.55 0 0 0-.58 8.69v11.72h-4.11zM431.37 307.32a15.82 15.82 0 0 1 12.24 5.35 17.16 17.16 0 0 1-.25 23.24 16.9 16.9 0 0 1-24 0 17.09 17.09 0 0 1-.25-23.21 15.81 15.81 0 0 1 12.26-5.38zm0 4a11.87 11.87 0 0 0-8.81 3.78 12.66 12.66 0 0 0-3.69 9.17 12.87 12.87 0 0 0 1.69 6.45 11.87 11.87 0 0 0 4.53 4.63 12.89 12.89 0 0 0 12.55 0 11.89 11.89 0 0 0 4.54-4.63 13 13 0 0 0 1.68-6.45 12.63 12.63 0 0 0-3.7-9.17 11.88 11.88 0 0 0-8.8-3.75zM474.79 295.81v4a10.11 10.11 0 0 0-3.88-1 3.78 3.78 0 0 0-2 .48 2.08 2.08 0 0 0-1 1.12 15.37 15.37 0 0 0-.2 3.36v4.32h6.67v3.55h-6.67v28.39h-4.11V311.7h-4.19v-3.55h4.19v-5a13.79 13.79 0 0 1 .63-4.9 5 5 0 0 1 2.15-2.36A7 7 0 0 1 470 295a17.7 17.7 0 0 1 4.79.81z" transform="translate(1.71 2.2)"/>
  <g>
    <path class="logo-cls-2" d="M38 177.48q-5 0-11.16.53t-11.84.53a51.81 51.81 0 0 1-10.1-.88q-4.44-.89-5.5-3.72-2.13-1.77 0-4.08t3.9-4.08c4.49-.47 8.38-.82 11.7-1.06s6.37-.53 9.21-.88 5.55-.71 8.15-1.07 5.32-.76 8.15-1.24q5.32-19.84 9.93-37.92t8.86-35.79Q63.5 70.09 67.58 52t8.68-37.9q3.19-4.61 5.32-4.79a53.38 53.38 0 0 1 7.09.18q2.11 11.34 3.18 19.14t2 15.77q.89 8 2.13 17.72t3.32 24.63q1.41 15.24 3.9 30t4.25 30.3q9.21-1.41 17.72-3t15.06-2.84q6.56-1.23 10.63-2c2.72-.47 4.08-.58 4.08-.35q1.06 3.19-3.37 6.2a68.11 68.11 0 0 1-11.51 6q-7.09 3-15.25 5.67t-14.53 4.78q.72 6.74 2.49 16.84t3.71 21.44q2 11.34 4.08 22.86t3.72 20.91c1.07 6.25 1.83 11.46 2.31 15.59s.47 6.44 0 6.92c-4 .47-6.91.05-8.69-1.25a26.05 26.05 0 0 0-6.55-3.36q-2.85-23.4-7.09-47.67t-6.74-48.38q-8.14 1.78-20.73 4.79t-26.05 5.14q-2.13 7.8-3.9 17.36T43.3 211q-1.77 8.7-3 15.6c-.83 4.6-1.6 7.62-2.31 9-1.18 1.19-3.25 2-6.2 2.31a8.29 8.29 0 0 1-7.26-2.31 65.54 65.54 0 0 1 1.59-9.74q1.59-7.62 3.72-16.83t4.43-17.91c1.52-5.78 2.73-10.33 3.73-13.64zm17-17.37q5.31-1.06 11.69-2.3t11.87-2.66c3.66-.94 6.86-1.71 9.57-2.3a32.43 32.43 0 0 0 4.79-1.24q-.72-7.8-1.24-12.94c-.36-3.42-.71-7-1.07-10.81s-.77-8.2-1.24-13.29-1.18-12-2.12-20.73q-2.85-22.33-4.08-33.32t-2.3-7.08q-5 19.13-8.69 33.13t-6.73 25.88q-3 11.86-5.49 23.21T55 160.11zM272.25 58.4q-1.06 6.38-2.48 13.47t-3 13.46q-1.59 6.39-2.66 11c-.7 3.08-1.18 5-1.41 5.67q-2.13 6-5.67 15.6t-8.33 20q-4.78 10.45-10.81 20.91a118.23 118.23 0 0 1-12.41 17.9q0 5.31 1.24 17.9t3 27.11q1.75 14.58 3.36 28.58t1.95 21.8q-1.77 1.77-3.19-.71t-4.25-8.51q-2.13-9.23-3.37-17t-2.3-15.77q-1.06-8-2.3-16.84t-3.72-20.2q-6.75 8.5-16.13 19.32a165.17 165.17 0 0 1-19.49 19.13q-10.11 8.34-19.85 11.7t-16.84-3a19.24 19.24 0 0 1-3.72-13.29 44.08 44.08 0 0 1 4.26-15.6 89.35 89.35 0 0 1 9.56-15.77q5.85-7.78 11.88-14.53T176.91 169q5.31-5 7.8-7.09 4.95-3.19 8.32-5.14t6-3.19a22.56 22.56 0 0 1 5.49-1.77 27.18 27.18 0 0 1 7.09-.18q-.7-8.15-.88-19.49t0-22.86q.17-11.52.7-21.44a114.83 114.83 0 0 1 1.6-15.25 78 78 0 0 1 3.37-16.3 104.58 104.58 0 0 1 6.73-16.48 83.42 83.42 0 0 1 9-14.18A29.85 29.85 0 0 1 243 16.75a18.49 18.49 0 0 1 12.05-1.24q6.19 1.43 12.23 8.86 4.95 6 5 15.07zM174.07 186q-9.57 9.91-14 18.25a158.48 158.48 0 0 0-7.26 15.42V223a17.84 17.84 0 0 0 .53 4.42 7.77 7.77 0 0 0 2.13 3.72q1.59 1.61 5.13.89a36 36 0 0 0 10.11-5.85q1.93-1.59 4.25-3.37c1.53-1.17 3.48-2.71 5.85-4.6q5-5.31 12.22-12.05A101.43 101.43 0 0 0 205.79 192a41.12 41.12 0 0 0 7.27-15.24q1.77-7.78-4.61-15.24a20.05 20.05 0 0 0-5.14.71 23.29 23.29 0 0 0-6.55 3.37 104 104 0 0 0-9.4 7.44q-5.49 4.8-13.29 12.96zm51.39-33a75.41 75.41 0 0 0 10.63-15q4.26-8 9.58-19A131.49 131.49 0 0 0 254 94.55a203.55 203.55 0 0 0 5.13-29.24 110.47 110.47 0 0 0 0-25q-1.41-10.63-7.08-11.31c-3.32-.47-6.38.77-9.22 3.72a50.58 50.58 0 0 0-7.8 11 87.59 87.59 0 0 0-6 14 100.57 100.57 0 0 0-3.55 13.11 128.84 128.84 0 0 0-2 12.76q-.52 5.67-.7 11.87t-.53 13.47q-.36 7.27-1.42 17.9a105.08 105.08 0 0 0 .53 10.63 67.19 67.19 0 0 0 1.42 9 50.89 50.89 0 0 0 1.59 5.67c.5 1.31.85 1.6 1.09.87zM305.21 171.45c0 .71.35 4 1.06 9.93s1.53 13.11 2.48 21.62 2.07 17.66 3.37 27.47 2.48 19.13 3.54 28 2.07 16.65 3 23.39 1.53 11 1.77 12.93c-1.42-.23-2.61-.47-3.55-.71a6.19 6.19 0 0 1-2.83-1.77 36.24 36.24 0 0 1-3.37-4.07q-1.95-2.67-5.49-7.62-4.62-32.62-7.27-56.89t-4.43-39.52a123.1 123.1 0 0 1-9.21 11.35q-2.83 2.83-3.55 2.83c-.71 0-.82-1.06-.35-3.19.24-1.18.47-2.36.71-3.54s.47-2.25.7-3.19a8 8 0 0 1 1.07-2.48 76.34 76.34 0 0 0 4.43-7.09 49.61 49.61 0 0 0 3-6.38 45.1 45.1 0 0 0 2.13-6.74q-.36-3.89-.53-6.73c-.13-1.89-.18-3.84-.18-5.85s-.06-4.07-.18-6.2-.17-4.84-.17-8.15v-34.91q0-11.5.35-24.28t.89-24.27q.53-11.52 1.41-20.92A132.85 132.85 0 0 1 296 20.12q2.47-10.28 7.62-15.77T314.42-2A15.32 15.32 0 0 1 325.59.8q5.49 3.74 8.32 11.52 3.19 7.8 3.19 20.2a191.48 191.48 0 0 1-2.1 27.12q-2.13 14.7-5.85 30.65t-8 31q-4.25 15.06-8.5 28.17t-7.44 21.99zm-2.84-20.19a494.88 494.88 0 0 0 14.53-50.87q5.67-25 8.33-44.83T327 23.49q-.88-12.22-5.14-12.58-6.74-2.49-10.63 4.6T305 35.36a217.75 217.75 0 0 0-3 29.24q-.72 16.49-.54 32.78t.54 30.84q.37 14.54.37 23.04zM359.78 144.52c.71-.23 2.71-.89 6-2s6-1.24 8.14-.53q10.28-.36 15.78 5.31t.88 22q-6.74 18.07-17.89 30.12a176.41 176.41 0 0 1-26.41 23q3.54 9.22 10.63 10.28a27.09 27.09 0 0 0 14.89-2.3 73.25 73.25 0 0 0 15.24-9q7.44-5.67 12.05-9.93 7.44-6.37 11.87-10.8a116 116 0 0 0 9.39-10.82c.71-.47 1.12-.4 1.25.18a7.74 7.74 0 0 1-.18 2.66c-.24 1.18-.6 2.84-1.07 5a47.56 47.56 0 0 1-2.12 4.43 27 27 0 0 1-3 4.26q-2 2.3-5.14 5.49t-7.8 8.51q-5.32 5-10.28 9.74a68.8 68.8 0 0 1-10.45 8.33 36.13 36.13 0 0 1-12.05 5 40 40 0 0 1-15.06 0 50.9 50.9 0 0 1-11.35-5.31 27.19 27.19 0 0 1-6.56-5.85 26.9 26.9 0 0 1-3.36-5.49 21.54 21.54 0 0 1-1.42-4.26q-1.77-7.08-1.42-19.13t7.09-31.2a89 89 0 0 1 9.93-16.83 39.69 39.69 0 0 1 12.42-10.86zm-15.6 62.73a103.21 103.21 0 0 0 10.82-6.91 79.08 79.08 0 0 0 11.69-10.28 69.35 69.35 0 0 0 9.57-12.94 32.55 32.55 0 0 0 4.43-14.88q1.06-5.31-.36-7.44c-.47-.71-.94-1.07-1.41-1.07q-6-2.82-12.05 1.78a44.27 44.27 0 0 0-11 13.11 96.19 96.19 0 0 0-8.33 19 64.21 64.21 0 0 0-3.36 19.63z" transform="translate(1.71 2.2)"/>
    <path class="logo-cls-2" d="M417.55 132.83q-.35-3.2 3.37-1.6c2.48 1.06 5 2.19 7.62 3.37.94 5.44 1.65 9.74 2.13 12.93s.82 6.2 1.06 9 .47 5.91.71 9.21.59 7.69 1.06 13.12a79 79 0 0 1 7.8-15.06 43.84 43.84 0 0 1 11.87-11.8 50.48 50.48 0 0 1 17.37-7.26q10.09-2.31 24.28-1.6a6.54 6.54 0 0 1-1.95 4.79q-2 2-9 3a45.4 45.4 0 0 0-17.9 6.91 60.53 60.53 0 0 0-13.11 11.87A62.65 62.65 0 0 0 444 184q-3.37 7.62-5.49 14-.36 3.18-.89 9t-.71 12.4l-.35 12.76a44.94 44.94 0 0 0 .53 9.74 2.28 2.28 0 0 1-1.6 2.66 16.41 16.41 0 0 1-4.43 1.24 10 10 0 0 1-4.6-.35c-1.42-.48-2.13-1.3-2.13-2.48q.7-36.5-2-62.91t-4.78-47.23z" transform="translate(1.71 2.2)"/>
  </g>
  <g>
    <path class="logo-cls-1" d="M171.84 410.48l-19.23 9.74 4-21.19-15.2-15.29 21.35-2.74 9.83-19.18 9.26 19.48 21.28 3.41-15.66 14.79 3.32 21.32-18.95-10.34zm15.28 5.13l-2.66-17.14 12.6-11.92-17.13-2.76-7.43-15.67-7.58 14.78-.34.66-17.2 2.23 12.23 12.3-3.19 17.05 15.48-7.84 15.22 8.31zM241.1 410.48l-19.24 9.74 4-21.19-15.2-15.29L232 381l9.85-19.18 9.24 19.48 21.29 3.41-15.66 14.79 3.28 21.32-18.9-10.34zm15.28 5.13l-2.68-17.14 12.61-11.92-17.13-2.76-7.43-15.67-7.58 14.78-.34.66-17.2 2.24 12.23 12.29-3.19 17.05 15.47-7.84 15.24 8.31zM310.35 410.48l-19.25 9.74 4-21.19-15.2-15.29 21.36-2.74 9.83-19.18 9.26 19.48 21.28 3.41L326 399.5l3.33 21.32-18.94-10.34zm15.28 5.13L323 398.47l12.6-11.92-17.13-2.76-7.47-15.67-7.57 14.78-.34.66-17.2 2.24 12.23 12.29-3.19 17.05 15.48-7.84 15.23 8.31z" transform="translate(1.71 2.2)"/>
  </g>
</svg>
