<svg version="1.1" id="Layer_1" xmlns="http://www.w3.org/2000/svg" x="0" y="0" viewBox="0 0 994.9 296.9" xml:space="preserve">
  <path class="st0" d="M528.3 144.5h4.3v18.1h22v-18.1h4.3v43.2h-4.3v-20.9h-22v20.9h-4.3v-43.2zm61.6 10.4c4.7-.1 9.1 1.8 12.2 5.4 6 6.6 5.9 16.7-.2 23.2-3.1 3.3-7.5 5.2-12 5-4.5.1-8.9-1.7-12-5-6.1-6.5-6.2-16.6-.2-23.2 3-3.5 7.5-5.5 12.2-5.4zm0 4c-3.3 0-6.5 1.4-8.8 3.8-2.4 2.4-3.7 5.7-3.7 9.2 0 2.3.6 4.5 1.7 6.5 1.1 1.9 2.6 3.5 4.5 4.6 3.9 2.2 8.6 2.2 12.5 0 1.9-1.1 3.5-2.7 4.5-4.6 1.1-2 1.7-4.2 1.7-6.5.1-3.4-1.3-6.7-3.7-9.2-2.2-2.4-5.4-3.8-8.7-3.8zm33.9-15h4.1v11.9h6.5v3.5h-6.5v28.4h-4.1v-28.4h-5.6v-3.5h5.6v-11.9zm49.7 33.2l3.5 1.8c-1 2-2.3 3.9-3.9 5.4-1.5 1.4-3.1 2.4-5 3.1-2 .7-4.2 1.1-6.3 1.1-5.2 0-9.3-1.7-12.2-5.1-2.8-3.2-4.4-7.3-4.4-11.6 0-3.9 1.3-7.8 3.7-10.8 3-4 7.7-6.2 12.7-6 5.1-.2 9.9 2.2 13 6.2 2.4 3.1 3.6 7 3.5 10.9h-28.7c0 3.4 1.2 6.7 3.6 9.1 2.2 2.3 5.3 3.6 8.5 3.6 1.6 0 3.2-.3 4.8-.9 1.4-.5 2.8-1.3 3.9-2.3 1.1-1.3 2.3-2.8 3.3-4.5zm0-8.6c-.4-1.9-1.2-3.7-2.4-5.3-1.1-1.4-2.5-2.5-4.2-3.2-1.7-.8-3.6-1.2-5.4-1.2-3-.1-5.9 1-8.1 3-1.8 1.8-3.1 4.1-3.7 6.6l23.8.1zm17.6-25.1h4.1v44.3h-4.1v-44.3zm83.6 8.3l-3.4 3.2c-2.3-2.3-5-4.1-7.9-5.4-2.6-1.2-5.5-1.8-8.4-1.8-3.4 0-6.7.9-9.7 2.5-3 1.6-5.4 3.9-7.1 6.8-1.6 2.7-2.5 5.8-2.5 9 0 3.3.9 6.5 2.6 9.3 1.7 2.9 4.2 5.3 7.2 6.9 3.1 1.7 6.6 2.5 10.1 2.5 4.1.1 8.1-1.2 11.3-3.8 3-2.4 5-5.9 5.5-9.8h-13.8V167h18.6c0 6.7-2 12-5.9 15.9-3.9 3.9-9.2 5.9-15.8 5.9-8 0-14.3-2.7-19-8.2-3.5-4-5.4-9.2-5.4-14.5 0-4 1-8 3.1-11.4 2-3.5 4.9-6.3 8.5-8.3 3.7-2 7.9-3.1 12.2-3 3.5 0 7.1.7 10.3 2 3.5 1.5 6.8 3.6 9.5 6.3zm47.9 4v31.9h-4v-5.5c-1.6 2-3.6 3.6-5.8 4.7-6.3 3-13.8 1.7-18.6-3.3-3.2-3.2-4.9-7.5-4.8-12-.1-4.4 1.7-8.7 4.8-11.8 3-3.2 7.3-5 11.7-4.9 2.5 0 4.9.5 7.1 1.7 2.2 1.2 4.1 2.9 5.6 5v-5.9l4 .1zm-16.4 3.2c-4.6 0-8.8 2.4-11 6.4-2.3 4-2.3 8.9 0 12.9 1.1 2 2.7 3.6 4.6 4.8 1.9 1.1 4.1 1.7 6.3 1.7s4.5-.6 6.4-1.7c1.9-1.1 3.6-2.7 4.7-4.6 1.1-2 1.7-4.3 1.6-6.5.1-3.5-1.2-6.8-3.7-9.3-2.3-2.4-5.5-3.8-8.9-3.7zm47.8.3l-2.6 2.7c-2.2-2.1-4.4-3.2-6.5-3.2-1.3 0-2.5.4-3.4 1.3-.9.8-1.4 1.9-1.4 3.1 0 1.1.4 2.2 1.2 3 1.4 1.4 3.1 2.6 5 3.4 3.1 1.6 5.1 3.1 6.2 4.6 1.1 1.5 1.6 3.2 1.6 5 0 2.5-1 4.9-2.8 6.7-1.8 1.8-4.3 2.8-6.9 2.7-1.8 0-3.6-.4-5.3-1.2-1.6-.8-3.1-1.9-4.2-3.3l2.6-2.9c2.1 2.4 4.3 3.6 6.7 3.6 1.6 0 3.1-.5 4.2-1.6 1.1-.9 1.7-2.3 1.7-3.7 0-1.2-.4-2.3-1.1-3.1-1.5-1.4-3.3-2.6-5.2-3.4-2.9-1.5-4.9-3-5.9-4.4-1-1.5-1.6-3.2-1.5-5-.1-2.3.8-4.4 2.5-6 1.7-1.6 3.9-2.5 6.3-2.4 2.8-.2 5.8 1.3 8.8 4.1zm16.8-15.3h4.1v11.9h6.5v3.5H875v28.4h-4.1v-28.4h-5.6v-3.5h5.6v-11.9zm22.9-.5h4.1v18.1c1.5-2 3.3-3.7 5.5-4.9 2-1.1 4.2-1.6 6.5-1.6s4.5.6 6.3 1.8c1.8 1.2 3.3 2.9 4.1 4.9.9 2 1.3 5.2 1.3 9.6v16.4h-4.1v-15.2c.1-2.5-.1-4.9-.4-7.4-.4-1.9-1.3-3.5-2.8-4.8-1.5-1.1-3.4-1.7-5.3-1.6-2.5 0-4.8.9-6.7 2.5-1.9 1.6-3.3 3.7-3.9 6.1-.5 2.9-.7 5.8-.6 8.7v11.7h-4.1l.1-44.3zm57.8 11.5c4.7-.1 9.1 1.8 12.2 5.4 6 6.6 5.9 16.7-.2 23.2-6.6 6.6-17.3 6.7-23.9.1l-.1-.1c-6.1-6.5-6.2-16.6-.2-23.2 3-3.5 7.5-5.5 12.2-5.4zm0 4c-3.3 0-6.5 1.3-8.8 3.8-2.4 2.4-3.8 5.7-3.7 9.2 0 2.3.6 4.5 1.7 6.5 1.1 1.9 2.6 3.5 4.5 4.6 3.9 2.2 8.6 2.2 12.5 0 1.9-1.1 3.5-2.7 4.5-4.6 1.1-2 1.7-4.2 1.7-6.5.1-3.4-1.3-6.7-3.7-9.2-2.2-2.4-5.4-3.8-8.7-3.8zm43.4-15.5v4c-1.2-.6-2.5-.9-3.9-1-.7 0-1.4.1-2 .5-.5.2-.8.6-1 1.1-.2 1.1-.3 2.2-.2 3.4v4.3h6.7v3.5h-6.7v28.4h-4.1v-28.3h-4.2v-3.5h4.2v-5c-.1-1.7.1-3.3.6-4.9.4-1 1.2-1.8 2.2-2.4 1.1-.6 2.4-.9 3.6-.9 1.6 0 3.2.3 4.8.8z"/>
  <path class="st1" d="M39.7 179.6c-3.3 0-7.1.2-11.2.5-4.1.4-8.1.5-11.8.5-3.4 0-6.8-.3-10.1-.9-3-.6-4.8-1.8-5.5-3.7-1.4-1.2-1.4-2.5 0-4.1s2.7-2.9 3.9-4.1c4.5-.5 8.4-.8 11.7-1.1s6.4-.5 9.2-.9 5.5-.7 8.2-1.1 5.3-.8 8.2-1.2c3.5-13.2 6.9-25.9 9.9-37.9 3.1-12.1 6-24 8.9-35.8C63.9 78 66.7 66 69.4 54s5.6-24.7 8.7-37.9c2.1-3.1 3.9-4.7 5.3-4.8 2.4-.1 4.7 0 7.1.2 1.4 7.6 2.5 13.9 3.2 19.1s1.4 10.5 2 15.8c.6 5.3 1.3 11.2 2.1 17.7S99.6 79 101 88.9c.9 10.2 2.2 20.2 3.9 30s3.1 19.9 4.2 30.3c6.1-.9 12-1.9 17.7-3 5.7-1.1 10.7-2 15.1-2.8 4.4-.8 7.9-1.5 10.6-2 2.7-.5 4.1-.6 4.1-.4.7 2.1-.4 4.2-3.4 6.2-3.6 2.4-7.5 4.4-11.5 6-4.7 2-9.8 3.9-15.2 5.7s-10.3 3.4-14.5 4.8c.5 4.5 1.3 10.1 2.5 16.8 1.2 6.7 2.4 13.9 3.7 21.4 1.3 7.6 2.7 15.2 4.1 22.9 1.4 7.7 2.6 14.7 3.7 20.9 1.1 6.2 1.8 11.5 2.3 15.6.5 4.1.5 6.4 0 6.9-4 .5-6.9 0-8.7-1.2-2-1.4-4.2-2.6-6.6-3.4-1.9-15.6-4.3-31.5-7.1-47.7s-5.1-32.3-6.7-48.4c-5.4 1.2-12.3 2.8-20.7 4.8-8.4 2-17.1 3.7-26 5.1-1.4 5.2-2.7 11-3.9 17.4s-2.4 12.5-3.5 18.3c-1.2 5.8-2.2 11-3 15.6-.8 4.6-1.6 7.6-2.3 9-1.2 1.2-3.2 2-6.2 2.3-2.7.5-5.4-.4-7.3-2.3.3-3.3.8-6.5 1.6-9.7 1.1-5.1 2.3-10.7 3.7-16.8s2.9-12.1 4.4-17.9c1.5-5.8 2.7-10.4 3.7-13.7zm17-17.3c3.5-.7 7.4-1.5 11.7-2.3 4.3-.8 8.2-1.7 11.9-2.7 3.7-.9 6.9-1.7 9.6-2.3 1.6-.3 3.2-.7 4.8-1.2-.5-5.2-.9-9.5-1.2-12.9-.4-3.4-.7-7-1.1-10.8s-.8-8.2-1.2-13.3-1.2-12-2.1-20.7c-1.9-14.9-3.3-26-4.1-33.3-.8-7.3-1.6-9.7-2.3-7.1-3.3 12.8-6.2 23.8-8.7 33.1-2.5 9.3-4.7 18-6.7 25.9-2 7.9-3.8 15.6-5.5 23.2-1.8 7.5-3.5 15.6-5.1 24.4zM273.9 60.5c-.7 4.3-1.5 8.7-2.5 13.5-.9 4.7-1.9 9.2-3 13.5-1.1 4.3-1.9 7.9-2.7 11-.7 3.1-1.2 5-1.4 5.7-1.4 4-3.3 9.2-5.7 15.6-2.4 6.4-5.1 13.1-8.3 20-3.2 7-6.8 13.9-10.8 20.9-3.6 6.3-7.7 12.3-12.4 17.9 0 3.5.4 9.5 1.2 17.9s1.8 17.4 3 27.1c1.2 9.7 2.3 19.2 3.4 28.6 1.1 9.3 1.7 16.6 1.9 21.8-1.2 1.2-2.2.9-3.2-.7s-2.4-4.5-4.2-8.5c-1.4-6.2-2.5-11.8-3.4-17s-1.6-10.4-2.3-15.8c-.7-5.3-1.5-10.9-2.3-16.8-.8-5.9-2.1-12.6-3.7-20.2-4.5 5.7-9.9 12.1-16.1 19.3-6 6.9-12.5 13.3-19.5 19.1-6.7 5.6-13.4 9.5-19.9 11.7-6.5 2.2-12.1 1.2-16.8-3-2.8-3.8-4.2-8.6-3.7-13.3.4-5.4 1.9-10.7 4.3-15.6 2.6-5.6 5.8-10.9 9.6-15.8 3.9-5.2 7.9-10 11.9-14.5s7.8-8.4 11.3-11.7c3.5-3.3 6.1-5.7 7.8-7.1 3.3-2.1 6.1-3.8 8.3-5.1 2.2-1.3 4.2-2.4 6-3.2 1.7-.8 3.6-1.4 5.5-1.8 2.3-.4 4.7-.4 7.1-.2-.5-5.4-.8-11.9-.9-19.5-.1-7.6-.1-15.2 0-22.9.1-7.7.3-14.8.7-21.4.2-5.1.7-10.2 1.6-15.2.5-5.5 1.7-11 3.4-16.3 1.8-5.7 4-11.2 6.7-16.5 2.5-5 5.5-9.8 9-14.2 2.9-3.8 6.6-6.8 10.9-8.9 3.8-1.8 8-2.2 12.1-1.2 4.1 1 8.2 3.9 12.2 8.9 3.3 4 5 9 5 15.1l-.1 18.8zm-98.2 127.6c-6.4 6.6-11 12.7-14 18.2-2.7 5-5.1 10.2-7.3 15.4v3.3c0 1.5.2 3 .5 4.4.3 1.4 1.1 2.7 2.1 3.7 1.1 1.1 2.8 1.4 5.1.9 3.7-1.4 7.1-3.4 10.1-5.9 1.3-1.1 2.7-2.2 4.2-3.4 1.5-1.2 3.5-2.7 5.9-4.6 3.3-3.5 7.4-7.6 12.2-12.1 4.7-4.3 9-9 12.8-14.2 3.5-4.5 5.9-9.7 7.3-15.2 1.2-5.2-.4-10.3-4.6-15.2-1.7 0-3.5.3-5.1.7-2.3.8-4.6 1.9-6.6 3.4-3.3 2.3-6.4 4.8-9.4 7.4-3.5 3.5-8 7.8-13.2 13.2zm51.4-33c4.1-4.5 7.7-9.6 10.6-15 2.8-5.3 6-11.7 9.6-19 3.6-7.9 6.4-16 8.3-24.4 2.4-9.6 4.1-19.4 5.1-29.2.9-8.3.9-16.7 0-25-.9-7.1-3.3-10.9-7.1-11.3-3.3-.5-6.4.8-9.2 3.7-3.1 3.3-5.7 7-7.8 11-2.4 4.5-4.4 9.2-6 14-1.5 4.3-2.7 8.7-3.6 13.1-.9 4.2-1.5 8.5-2 12.8-.3 3.8-.6 7.7-.7 11.9-.1 4.1-.3 8.6-.5 13.5-.2 4.8-.7 10.8-1.4 17.9 0 3.6.2 7.1.5 10.6.3 3 .7 6 1.4 9 .4 1.9 1 3.8 1.6 5.7.6 1.2 1 1.5 1.2.7zm79.8 18.5c0 .7.4 4 1.1 9.9s1.5 13.1 2.5 21.6 2.1 17.7 3.4 27.5 2.5 19.1 3.5 28c1.1 8.9 2.1 16.6 3 23.4s1.5 11 1.8 12.9c-1.4-.2-2.6-.5-3.5-.7-1.1-.3-2.1-.9-2.8-1.8-1.2-1.3-2.3-2.6-3.4-4.1-1.3-1.8-3.1-4.3-5.5-7.6-3.1-21.7-5.5-40.7-7.3-56.9s-3.2-29.4-4.4-39.5c-2.8 4-5.9 7.8-9.2 11.4-1.9 1.9-3.1 2.8-3.5 2.8-.7 0-.8-1.1-.4-3.2.2-1.2.5-2.4.7-3.5s.5-2.2.7-3.2c.2-.9.6-1.7 1.1-2.5 1.6-2.3 3.1-4.6 4.4-7.1 1.2-2.1 2.2-4.2 3-6.4.9-2.2 1.6-4.4 2.1-6.7-.2-2.6-.4-4.8-.5-6.7-.1-1.9-.2-3.8-.2-5.9s-.1-4.1-.2-6.2-.2-4.8-.2-8.1v-34.9c0-7.7.1-15.8.4-24.3s.5-16.6.9-24.3c.4-7.7.8-14.7 1.4-20.9.4-4.8 1.1-9.6 2-14.4 1.6-6.9 4.2-12.1 7.6-15.8s7-5.8 10.8-6.4c3.9-.6 8 .4 11.2 2.8 3.7 2.5 6.4 6.3 8.3 11.5 2.1 5.2 3.2 11.9 3.2 20.2-.1 9.1-.8 18.1-2.1 27.1-1.4 9.8-3.4 20-5.9 30.7-2.5 10.6-5.1 21-8 31-2.8 10-5.7 19.4-8.5 28.2-2.9 8.8-5.4 16.2-7.5 22.1zm-2.9-20.2c5.7-16.7 10.6-33.7 14.5-50.9 3.8-16.7 6.6-31.6 8.3-44.8s2.4-23.9 1.8-32.1c-.6-8.1-2.3-12.3-5.1-12.6-4.5-1.7-8-.1-10.6 4.6s-4.7 11.3-6.2 19.9c-1.7 9.7-2.7 19.4-3 29.2-.5 11-.7 21.9-.5 32.8s.3 21.1.5 30.8c.2 9.8.3 17.4.3 23.1zm57.4-6.7c.7-.2 2.7-.9 6-2s6-1.2 8.1-.5c6.9-.2 12.1 1.5 15.8 5.3 3.7 3.8 4 11.1.9 22-4.5 12-10.5 22.1-17.9 30.1-8 8.5-16.9 16.2-26.4 23 2.4 6.1 5.9 9.6 10.6 10.3 5.1.7 10.2-.1 14.9-2.3 5.4-2.4 10.5-5.4 15.2-9 5-3.8 9-7.1 12-9.9 5-4.2 8.9-7.8 11.9-10.8 3.3-3.4 6.5-7 9.4-10.8.7-.5 1.1-.4 1.2.2.1.9 0 1.8-.2 2.7-.2 1.2-.6 2.8-1.1 5-.6 1.5-1.3 3-2.1 4.4-.9 1.5-1.9 2.9-3 4.3-1.3 1.5-3 3.4-5.1 5.5-2.1 2.1-4.7 5-7.8 8.5-3.5 3.3-7 6.6-10.3 9.7-3.2 3.1-6.7 5.9-10.5 8.3-3.7 2.4-7.8 4.1-12 5-5 1-10.1 1-15.1 0-4-1.3-7.8-3.1-11.4-5.3-2.5-1.6-4.7-3.6-6.6-5.9-1.3-1.7-2.5-3.5-3.4-5.5-.6-1.4-1.1-2.8-1.4-4.3-1.2-4.7-1.7-11.1-1.4-19.1.2-8 2.6-18.4 7.1-31.2 2.7-6 6-11.6 9.9-16.8 3.7-4.5 7.9-8.2 12.7-10.9zm-15.6 62.7c3.7-2.1 7.4-4.4 10.8-6.9 4.2-3 8.1-6.5 11.7-10.3 3.7-3.9 6.9-8.3 9.6-12.9 2.7-4.5 4.2-9.6 4.4-14.9.7-3.5.6-6-.4-7.4-.5-.7-.9-1.1-1.4-1.1-4-1.9-8-1.3-12 1.8-4.5 3.6-8.2 8.1-11 13.1-3.5 6-6.2 12.4-8.3 19-2.1 6.3-3.3 12.9-3.4 19.6z"/>
  <path class="st1" d="M419.2 135c-.2-2.1.9-2.7 3.4-1.6s5 2.2 7.6 3.4c.9 5.4 1.6 9.7 2.1 12.9s.8 6.2 1.1 9 .5 5.9.7 9.2.6 7.7 1.1 13.1c2.1-5.3 4.7-10.3 7.8-15.1 3.2-4.7 7.2-8.7 11.9-11.8 5.3-3.5 11.2-6 17.4-7.3 6.7-1.5 14.8-2.1 24.3-1.6 0 1.8-.7 3.5-2 4.8-1.3 1.3-4.3 2.3-9 3-6.4 1-12.5 3.4-17.9 6.9-4.9 3.3-9.3 7.3-13.1 11.9-3.6 4.3-6.6 9.2-8.9 14.3-2.2 5.1-4.1 9.7-5.5 14-.2 2.1-.5 5.1-.9 9s-.6 8-.7 12.4l-.4 12.8c-.2 3.3 0 6.5.5 9.7.2 1.2-.5 2.3-1.6 2.7-1.4.6-2.9 1-4.4 1.2-1.5.2-3.1.1-4.6-.4-1.4-.5-2.1-1.3-2.1-2.5.5-24.3-.2-45.3-2-62.9-1.8-17.5-3.4-33.2-4.8-47.1z"/>
  <path class="st0" d="M551.5 253.6l-19.2 9.7 4-21.2-15.3-15.3 21.4-2.7 9.8-19.2 9.3 19.5 21.3 3.4-15.7 14.8 3.3 21.3-18.9-10.3zm15.2 5.1l-2.7-17.1 12.6-11.9-17.1-2.8-7.4-15.7-7.6 14.8-.3.7-17.2 2.2 12.2 12.3-3.2 17.1 15.5-7.8 15.2 8.2zm54-5.1l-19.2 9.7 4-21.2-15.2-15.3 21.3-2.7 9.8-19.2 9.2 19.5 21.3 3.4-15.7 14.8 3.3 21.3-18.8-10.3zm15.3 5.1l-2.7-17.1 12.6-11.9-17.1-2.8-7.4-15.7-7.6 14.8-.3.7-17.2 2.2 12.2 12.3-3.2 17.1 15.5-7.8 15.2 8.2zm54-5.1l-19.2 9.7 4-21.2-15.2-15.3 21.4-2.7 9.8-19.2 9.3 19.5 21.3 3.4-15.6 14.8 3.3 21.3-19.1-10.3zm15.3 5.1l-2.6-17.1 12.6-11.9-17.1-2.8-7.5-15.7-7.6 14.8-.3.7-17.2 2.2 12.2 12.3-3.2 17.1 15.5-7.8 15.2 8.2z"/>
</svg>
