<?xml version="1.0" encoding="utf-8"?>
<!-- Generator: Adobe Illustrator 24.0.1, SVG Export Plug-In . SVG Version: 6.00 Build 0)  -->
<svg version="1.1" id="Layer_1" xmlns="http://www.w3.org/2000/svg" xmlns:xlink="http://www.w3.org/1999/xlink" x="0px" y="0px"
	 viewBox="0 0 990.7 297.9" style="enable-background:new 0 0 990.7 297.9;" xml:space="preserve">
<style type="text/css">
	.st0{fill:#69614E;}
	.st1{fill:#990A2C;}
</style>
<path class="st0" d="M524.2,157.1h4.3v18.1h22v-18.1h4.3v43.2h-4.3v-20.9h-22v20.9h-4.3V157.1z M585.8,167.5
	c4.7-0.1,9.1,1.8,12.2,5.4c6,6.6,5.9,16.7-0.2,23.2c-3.1,3.3-7.5,5.2-12,5c-4.5,0.1-8.9-1.7-12-5c-6.1-6.5-6.2-16.6-0.2-23.2
	C576.6,169.4,581.1,167.4,585.8,167.5z M585.8,171.5c-3.3,0-6.5,1.4-8.8,3.8c-2.4,2.4-3.7,5.7-3.7,9.2c0,2.3,0.6,4.5,1.7,6.5
	c1.1,1.9,2.6,3.5,4.5,4.6c3.9,2.2,8.6,2.2,12.5,0c1.9-1.1,3.5-2.7,4.5-4.6c1.1-2,1.7-4.2,1.7-6.5c0.1-3.4-1.3-6.7-3.7-9.2
	C592.3,172.9,589.1,171.5,585.8,171.5L585.8,171.5z M619.6,156.5h4.1v11.9h6.5v3.5h-6.5v28.4h-4.1v-28.4H614v-3.5h5.6V156.5z
	 M669.3,189.7l3.5,1.8c-1,2-2.3,3.9-3.9,5.4c-1.5,1.4-3.1,2.4-5,3.1c-2,0.7-4.2,1.1-6.3,1.1c-5.2,0-9.3-1.7-12.2-5.1
	c-2.8-3.2-4.4-7.3-4.4-11.6c0-3.9,1.3-7.8,3.7-10.8c3-4,7.7-6.2,12.7-6c5.1-0.2,9.9,2.2,13,6.2c2.4,3.1,3.6,7,3.5,10.9h-28.7
	c0,3.4,1.2,6.7,3.6,9.1c2.2,2.3,5.3,3.6,8.5,3.6c1.6,0,3.2-0.3,4.8-0.9c1.4-0.5,2.8-1.3,3.9-2.3
	C667.2,192.9,668.4,191.4,669.3,189.7L669.3,189.7z M669.3,181.1c-0.4-1.9-1.2-3.7-2.4-5.3c-1.1-1.4-2.5-2.5-4.2-3.2
	c-1.7-0.8-3.6-1.2-5.4-1.2c-3-0.1-5.9,1-8.1,3c-1.8,1.8-3.1,4.1-3.7,6.6L669.3,181.1z M687,156h4.1v44.3H687V156z M770.6,164.4
	l-3.4,3.2c-2.3-2.3-5-4.1-7.9-5.4c-2.6-1.2-5.5-1.8-8.4-1.8c-3.4,0-6.7,0.9-9.7,2.5c-3,1.6-5.4,3.9-7.1,6.8c-1.6,2.7-2.5,5.8-2.5,9
	c0,3.3,0.9,6.5,2.6,9.3c1.7,2.9,4.2,5.3,7.2,6.9c3.1,1.7,6.6,2.5,10.1,2.5c4.1,0.1,8.1-1.2,11.3-3.8c3-2.4,5-5.9,5.5-9.8h-13.8v-4.2
	h18.6c0,6.7-2,12-5.9,15.9s-9.2,5.9-15.8,5.9c-8,0-14.3-2.7-19-8.2c-3.5-4-5.4-9.2-5.4-14.5c0-4,1-8,3.1-11.4c2-3.5,4.9-6.3,8.5-8.3
	c3.7-2,7.9-3.1,12.1-3c3.5,0,7.1,0.7,10.3,2C764.6,159.5,767.8,161.7,770.6,164.4L770.6,164.4z M818.5,168.4v31.9h-4v-5.5
	c-1.6,2-3.6,3.6-5.8,4.7c-6.3,3-13.8,1.7-18.6-3.3c-3.2-3.2-4.9-7.5-4.8-12c-0.1-4.4,1.7-8.7,4.8-11.8c3-3.2,7.3-5,11.7-4.9
	c2.5,0,4.9,0.5,7.1,1.7c2.2,1.2,4.1,2.9,5.6,5v-5.9L818.5,168.4z M802.1,171.5c-4.6,0-8.8,2.4-11,6.4c-2.3,4-2.3,8.9,0,12.9
	c1.1,2,2.7,3.6,4.6,4.8c1.9,1.1,4.1,1.7,6.3,1.7c2.2,0,4.5-0.6,6.4-1.7c1.9-1.1,3.6-2.7,4.7-4.6c1.1-2,1.7-4.3,1.6-6.5
	c0.1-3.5-1.2-6.8-3.7-9.3C808.7,172.8,805.5,171.4,802.1,171.5z M849.8,171.9l-2.6,2.7c-2.2-2.1-4.4-3.2-6.5-3.2
	c-1.3,0-2.5,0.4-3.4,1.3c-0.9,0.8-1.4,1.9-1.4,3.1c0,1.1,0.4,2.2,1.2,3c1.4,1.4,3.1,2.6,5,3.4c3.1,1.6,5.1,3.1,6.2,4.6
	c1.1,1.5,1.6,3.2,1.6,5c0,2.5-1,4.9-2.8,6.7c-1.8,1.8-4.3,2.8-6.9,2.7c-1.8,0-3.6-0.4-5.3-1.2c-1.6-0.8-3.1-1.9-4.2-3.3l2.6-2.9
	c2.1,2.4,4.3,3.6,6.7,3.6c1.6,0,3.1-0.5,4.2-1.6c1.1-0.9,1.7-2.3,1.7-3.7c0-1.2-0.4-2.3-1.1-3.1c-1.5-1.4-3.3-2.6-5.2-3.4
	c-2.9-1.5-4.9-3-5.9-4.4c-1-1.5-1.6-3.2-1.5-5c-0.1-2.3,0.8-4.4,2.5-6c1.7-1.6,3.9-2.5,6.3-2.4C843.9,167.5,846.9,169,849.8,171.9
	L849.8,171.9z M866.7,156.5h4.1v11.9h6.5v3.5h-6.5v28.4h-4.1v-28.4h-5.6v-3.5h5.6V156.5z M889.5,156h4.1v18.1c1.5-2,3.3-3.7,5.5-4.9
	c2-1.1,4.2-1.6,6.5-1.6c2.3,0,4.5,0.6,6.3,1.8c1.8,1.2,3.3,2.9,4.1,4.9c0.9,2,1.3,5.2,1.3,9.6v16.4h-4.1v-15.2
	c0.1-2.5-0.1-4.9-0.4-7.4c-0.4-1.9-1.3-3.5-2.8-4.8c-1.5-1.1-3.4-1.7-5.3-1.6c-2.5,0-4.8,0.9-6.7,2.5c-1.9,1.6-3.3,3.7-3.9,6.1
	c-0.5,2.9-0.7,5.8-0.6,8.7v11.7h-4.1L889.5,156z M947.3,167.5c4.7-0.1,9.1,1.8,12.2,5.4c6,6.6,5.9,16.7-0.2,23.2
	c-6.6,6.6-17.3,6.7-23.9,0.1c0,0-0.1-0.1-0.1-0.1c-6.1-6.5-6.2-16.6-0.2-23.2C938.2,169.4,942.6,167.4,947.3,167.5z M947.3,171.5
	c-3.3,0-6.5,1.3-8.8,3.8c-2.4,2.4-3.8,5.7-3.7,9.2c0,2.3,0.6,4.5,1.7,6.5c1.1,1.9,2.6,3.5,4.5,4.6c3.9,2.2,8.6,2.2,12.5,0
	c1.9-1.1,3.5-2.7,4.5-4.6c1.1-2,1.7-4.2,1.7-6.5c0.1-3.4-1.3-6.7-3.7-9.2C953.8,172.9,950.6,171.5,947.3,171.5L947.3,171.5z
	 M990.7,156v4c-1.2-0.6-2.5-0.9-3.9-1c-0.7,0-1.4,0.1-2,0.5c-0.5,0.2-0.8,0.6-1,1.1c-0.2,1.1-0.3,2.2-0.2,3.4v4.3h6.7v3.5h-6.7v28.4
	h-4.1v-28.3h-4.2v-3.5h4.2v-5c-0.1-1.7,0.1-3.3,0.6-4.9c0.4-1,1.2-1.8,2.2-2.4c1.1-0.6,2.4-0.9,3.6-0.9
	C987.6,155.3,989.2,155.5,990.7,156z"/>
<g>
	<path class="st0" d="M687.8,270.7l-19.2,9.7l4-21.2L657.4,244l21.4-2.7l9.8-19.2l9.3,19.5l21.3,3.4l-15.7,14.8l3.3,21.3
		L687.8,270.7L687.8,270.7z M703.1,275.8l-2.7-17.1l12.6-11.9l-17.1-2.8l-7.4-15.7l-7.6,14.8l-0.3,0.7l-17.2,2.2l12.2,12.3l-3.2,17
		l15.5-7.8L703.1,275.8L703.1,275.8z M757.1,270.7l-19.2,9.7l4-21.2L726.6,244l21.3-2.7l9.8-19.2l9.2,19.5l21.3,3.4l-15.7,14.8
		L776,281L757.1,270.7L757.1,270.7z M772.3,275.8l-2.7-17.1l12.6-11.9l-17.1-2.8l-7.4-15.7l-7.6,14.8l-0.3,0.7l-17.2,2.2l12.2,12.3
		l-3.2,17l15.5-7.8L772.3,275.8L772.3,275.8z M826.3,270.7l-19.2,9.7l4-21.2L795.9,244l21.4-2.7L827,222l9.3,19.5l21.3,3.4
		L842,259.7l3.3,21.3L826.3,270.7L826.3,270.7z M841.6,275.8l-2.6-17.1l12.6-11.9l-17.1-2.8l-7.5-15.7l-7.6,14.8l-0.3,0.7l-17.2,2.2
		l12.2,12.3l-3.2,17l15.5-7.8L841.6,275.8L841.6,275.8z"/>
</g>
<g>
	<path class="st1" d="M39.7,180.5c-3.3,0-7.1,0.2-11.2,0.5c-4.1,0.4-8.1,0.5-11.8,0.5c-3.4,0-6.8-0.3-10.1-0.9
		c-3-0.6-4.8-1.8-5.5-3.7c-1.4-1.2-1.4-2.5,0-4.1s2.7-2.9,3.9-4.1c4.5-0.5,8.4-0.8,11.7-1.1s6.4-0.5,9.2-0.9s5.5-0.7,8.2-1.1
		s5.3-0.8,8.2-1.2c3.5-13.2,6.9-25.9,9.9-37.9s6-24,8.9-35.8c2.8-11.8,5.6-23.8,8.3-35.8s5.6-24.7,8.7-37.9c2.1-3.1,3.9-4.7,5.3-4.8
		c2.4-0.1,4.7,0,7.1,0.2c1.4,7.6,2.5,13.9,3.2,19.1s1.4,10.5,2,15.8c0.6,5.3,1.3,11.2,2.1,17.7s1.9,14.7,3.3,24.6
		c0.9,10.2,2.2,20.2,3.9,30s3.1,19.9,4.2,30.3c6.1-0.9,12-1.9,17.7-3c5.7-1.1,10.7-2,15.1-2.8c4.4-0.8,7.9-1.5,10.6-2
		c2.7-0.5,4.1-0.6,4.1-0.4c0.7,2.1-0.4,4.2-3.4,6.2c-3.6,2.4-7.5,4.4-11.5,6c-4.7,2-9.8,3.9-15.2,5.7s-10.3,3.4-14.5,4.8
		c0.5,4.5,1.3,10.1,2.5,16.8c1.2,6.7,2.4,13.9,3.7,21.4c1.3,7.6,2.7,15.2,4.1,22.9c1.4,7.7,2.6,14.7,3.7,20.9
		c1.1,6.2,1.8,11.5,2.3,15.6c0.5,4.1,0.5,6.4,0,6.9c-4,0.5-6.9,0-8.7-1.2c-2-1.4-4.2-2.6-6.6-3.4c-1.9-15.6-4.3-31.5-7.1-47.7
		s-5.1-32.3-6.7-48.4c-5.4,1.2-12.3,2.8-20.7,4.8c-8.4,2-17.1,3.7-26,5.1c-1.4,5.2-2.7,11-3.9,17.4s-2.4,12.5-3.5,18.3
		c-1.2,5.8-2.2,11-3,15.6c-0.8,4.6-1.6,7.6-2.3,9c-1.2,1.2-3.2,2-6.2,2.3c-2.7,0.5-5.4-0.4-7.3-2.3c0.3-3.3,0.8-6.5,1.6-9.7
		c1.1-5.1,2.3-10.7,3.7-16.8s2.9-12.1,4.4-17.9C37.5,188.4,38.7,183.9,39.7,180.5z M56.7,163.2c3.5-0.7,7.4-1.5,11.7-2.3
		c4.3-0.8,8.2-1.7,11.9-2.7c3.7-0.9,6.9-1.7,9.6-2.3c1.6-0.3,3.2-0.7,4.8-1.2c-0.5-5.2-0.9-9.5-1.2-12.9c-0.4-3.4-0.7-7-1.1-10.8
		c-0.4-3.8-0.8-8.2-1.2-13.3s-1.2-12-2.1-20.7c-1.9-14.9-3.3-26-4.1-33.3c-0.8-7.3-1.6-9.7-2.3-7.1c-3.3,12.8-6.2,23.8-8.7,33.1
		c-2.5,9.3-4.7,18-6.7,25.9c-2,7.9-3.8,15.6-5.5,23.2C60,146.3,58.3,154.4,56.7,163.2z M273.9,61.5c-0.7,4.3-1.5,8.7-2.5,13.5
		c-0.9,4.7-1.9,9.2-3,13.5c-1.1,4.3-1.9,7.9-2.7,11c-0.7,3.1-1.2,5-1.4,5.7c-1.4,4-3.3,9.2-5.7,15.6c-2.4,6.4-5.1,13.1-8.3,20
		c-3.2,7-6.8,13.9-10.8,20.9c-3.6,6.3-7.7,12.3-12.4,17.9c0,3.5,0.4,9.5,1.2,17.9s1.8,17.4,3,27.1c1.2,9.7,2.3,19.2,3.4,28.6
		c1.1,9.3,1.7,16.6,1.9,21.8c-1.2,1.2-2.2,0.9-3.2-0.7s-2.4-4.5-4.2-8.5c-1.4-6.2-2.5-11.8-3.4-17s-1.6-10.4-2.3-15.8
		c-0.7-5.3-1.5-10.9-2.3-16.8c-0.8-5.9-2.1-12.6-3.7-20.2c-4.5,5.7-9.9,12.1-16.1,19.3c-6,6.9-12.5,13.3-19.5,19.1
		c-6.7,5.6-13.4,9.5-19.9,11.7c-6.5,2.2-12.1,1.2-16.8-3c-2.8-3.8-4.2-8.6-3.7-13.3c0.4-5.4,1.9-10.7,4.3-15.6
		c2.6-5.6,5.8-10.9,9.6-15.8c3.9-5.2,7.9-10,11.9-14.5s7.8-8.4,11.3-11.7c3.5-3.3,6.1-5.7,7.8-7.1c3.3-2.1,6.1-3.8,8.3-5.1
		c2.2-1.3,4.2-2.4,6-3.2c1.7-0.8,3.6-1.4,5.5-1.8c2.3-0.4,4.7-0.4,7.1-0.2c-0.5-5.4-0.8-11.9-0.9-19.5c-0.1-7.6-0.1-15.2,0-22.9
		c0.1-7.7,0.3-14.8,0.7-21.4c0.2-5.1,0.7-10.2,1.6-15.2c0.5-5.5,1.7-11,3.4-16.3c1.8-5.7,4-11.2,6.7-16.5c2.5-5,5.5-9.8,9-14.2
		c2.9-3.8,6.6-6.8,10.9-8.9c3.8-1.8,8-2.2,12.1-1.2c4.1,1,8.2,3.9,12.2,8.9c3.3,4,5,9,5,15.1L273.9,61.5z M175.7,189.1
		c-6.4,6.6-11,12.7-14,18.2c-2.7,5-5.1,10.2-7.3,15.4v3.3c0,1.5,0.2,3,0.5,4.4c0.3,1.4,1.1,2.7,2.1,3.7c1.1,1.1,2.8,1.4,5.1,0.9
		c3.7-1.4,7.1-3.4,10.1-5.9c1.3-1.1,2.7-2.2,4.2-3.4c1.5-1.2,3.5-2.7,5.9-4.6c3.3-3.5,7.4-7.6,12.2-12.1c4.7-4.3,9-9,12.8-14.2
		c3.5-4.5,5.9-9.7,7.3-15.2c1.2-5.2-0.4-10.3-4.6-15.2c-1.7,0-3.5,0.3-5.1,0.7c-2.3,0.8-4.6,1.9-6.6,3.4c-3.3,2.3-6.4,4.8-9.4,7.4
		C185.4,179.3,180.9,183.6,175.7,189.1z M227.1,156.1c4.1-4.5,7.7-9.6,10.6-15c2.8-5.3,6-11.7,9.6-19c3.6-7.9,6.4-16,8.3-24.4
		c2.4-9.6,4.1-19.4,5.1-29.2c0.9-8.3,0.9-16.7,0-25c-0.9-7.1-3.3-10.9-7.1-11.3c-3.3-0.5-6.4,0.8-9.2,3.7c-3.1,3.3-5.7,7-7.8,11
		c-2.4,4.5-4.4,9.2-6,14c-1.5,4.3-2.7,8.7-3.6,13.1c-0.9,4.2-1.5,8.5-2,12.8c-0.3,3.8-0.6,7.7-0.7,11.9c-0.1,4.1-0.3,8.6-0.5,13.5
		c-0.2,4.8-0.7,10.8-1.4,17.9c0,3.6,0.2,7.1,0.5,10.6c0.3,3,0.7,6,1.4,9c0.4,1.9,1,3.8,1.6,5.7C226.5,156.5,226.9,156.8,227.1,156.1
		L227.1,156.1z M306.9,174.5c0,0.7,0.4,4,1.1,9.9s1.5,13.1,2.5,21.6s2.1,17.7,3.4,27.5s2.5,19.1,3.5,28s2.1,16.6,3,23.4
		s1.5,11,1.8,12.9c-1.4-0.2-2.6-0.5-3.5-0.7c-1.1-0.3-2.1-0.9-2.8-1.8c-1.2-1.3-2.3-2.6-3.4-4.1c-1.3-1.8-3.1-4.3-5.5-7.6
		c-3.1-21.7-5.5-40.7-7.3-56.9s-3.2-29.4-4.4-39.5c-2.8,4-5.9,7.8-9.2,11.4c-1.9,1.9-3.1,2.8-3.5,2.8c-0.7,0-0.8-1.1-0.4-3.2
		c0.2-1.2,0.5-2.4,0.7-3.5s0.5-2.2,0.7-3.2c0.2-0.9,0.6-1.7,1.1-2.5c1.6-2.3,3.1-4.6,4.4-7.1c1.2-2.1,2.2-4.2,3-6.4
		c0.9-2.2,1.6-4.4,2.1-6.7c-0.2-2.6-0.4-4.8-0.5-6.7c-0.1-1.9-0.2-3.8-0.2-5.9s-0.1-4.1-0.2-6.2s-0.2-4.8-0.2-8.1V107
		c0-7.7,0.1-15.8,0.4-24.3s0.5-16.6,0.9-24.3c0.4-7.7,0.8-14.7,1.4-20.9c0.4-4.8,1.1-9.6,2-14.4c1.6-6.9,4.2-12.1,7.6-15.8
		s7-5.8,10.8-6.4c3.9-0.6,8,0.4,11.2,2.8c3.7,2.5,6.4,6.3,8.3,11.5c2.1,5.2,3.2,11.9,3.2,20.2c-0.1,9.1-0.8,18.1-2.1,27.1
		c-1.4,9.8-3.4,20-5.9,30.7c-2.5,10.6-5.1,21-8,31c-2.8,10-5.7,19.4-8.5,28.2C311.5,161.3,309,168.6,306.9,174.5L306.9,174.5z
		 M304,154.3c5.7-16.7,10.6-33.7,14.5-50.9c3.8-16.7,6.6-31.6,8.3-44.8s2.4-23.9,1.8-32.1c-0.6-8.1-2.3-12.3-5.1-12.6
		c-4.5-1.7-8-0.1-10.6,4.6s-4.7,11.3-6.2,19.9c-1.7,9.7-2.7,19.4-3,29.2c-0.5,11-0.7,21.9-0.5,32.8s0.3,21.1,0.5,30.8
		C303.9,141,304,148.7,304,154.3L304,154.3z M361.4,147.6c0.7-0.2,2.7-0.9,6-2s6-1.2,8.1-0.5c6.9-0.2,12.1,1.5,15.8,5.3
		c3.7,3.8,4,11.1,0.9,22c-4.5,12-10.5,22.1-17.9,30.1c-8,8.5-16.9,16.2-26.4,23c2.4,6.1,5.9,9.6,10.6,10.3
		c5.1,0.7,10.2-0.1,14.9-2.3c5.4-2.4,10.5-5.4,15.2-9c5-3.8,9-7.1,12-9.9c5-4.2,8.9-7.8,11.9-10.8c3.3-3.4,6.5-7,9.4-10.8
		c0.7-0.5,1.1-0.4,1.2,0.2c0.1,0.9,0,1.8-0.2,2.7c-0.2,1.2-0.6,2.8-1.1,5c-0.6,1.5-1.3,3-2.1,4.4c-0.9,1.5-1.9,2.9-3,4.3
		c-1.3,1.5-3,3.4-5.1,5.5c-2.1,2.1-4.7,5-7.8,8.5c-3.5,3.3-7,6.6-10.3,9.7c-3.2,3.1-6.7,5.9-10.5,8.3c-3.7,2.4-7.8,4.1-12,5
		c-5,1-10.1,1-15.1,0c-4-1.3-7.8-3.1-11.4-5.3c-2.5-1.6-4.7-3.6-6.6-5.9c-1.3-1.7-2.5-3.5-3.4-5.5c-0.6-1.4-1.1-2.8-1.4-4.3
		c-1.2-4.7-1.7-11.1-1.4-19.1c0.2-8,2.6-18.4,7.1-31.2c2.7-6,6-11.6,9.9-16.8C352.4,154,356.6,150.3,361.4,147.6L361.4,147.6z
		 M345.8,210.3c3.7-2.1,7.4-4.4,10.8-6.9c4.2-3,8.1-6.5,11.7-10.3c3.7-3.9,6.9-8.3,9.6-12.9c2.7-4.5,4.2-9.6,4.4-14.9
		c0.7-3.5,0.6-6-0.4-7.4c-0.5-0.7-0.9-1.1-1.4-1.1c-4-1.9-8-1.3-12,1.8c-4.5,3.6-8.2,8.1-11,13.1c-3.5,6-6.2,12.4-8.3,19
		C347.1,197,345.9,203.6,345.8,210.3L345.8,210.3z"/>
	<path class="st1" d="M419.2,135.9c-0.2-2.1,0.9-2.7,3.4-1.6c2.5,1.1,5,2.2,7.6,3.4c0.9,5.4,1.6,9.7,2.1,12.9s0.8,6.2,1.1,9
		s0.5,5.9,0.7,9.2s0.6,7.7,1.1,13.1c2.1-5.3,4.7-10.3,7.8-15.1c3.2-4.7,7.2-8.7,11.9-11.8c5.3-3.5,11.2-6,17.4-7.3
		c6.7-1.5,14.8-2.1,24.3-1.6c0,1.8-0.7,3.5-2,4.8c-1.3,1.3-4.3,2.3-9,3c-6.4,1-12.5,3.4-17.9,6.9c-4.9,3.3-9.3,7.3-13.1,11.9
		c-3.6,4.3-6.6,9.2-8.9,14.3c-2.2,5.1-4.1,9.7-5.5,14c-0.2,2.1-0.5,5.1-0.9,9s-0.6,8-0.7,12.4l-0.4,12.8c-0.2,3.3,0,6.5,0.5,9.7
		c0.2,1.2-0.5,2.3-1.6,2.7c-1.4,0.6-2.9,1-4.4,1.2c-1.5,0.2-3.1,0.1-4.6-0.4c-1.4-0.5-2.1-1.3-2.1-2.5c0.5-24.3-0.2-45.3-2-62.9
		C422.2,165.5,420.6,149.8,419.2,135.9z"/>
</g>
</svg>
