<svg xmlns="http://www.w3.org/2000/svg" width="248" height="406" data-name="Layer 1">
  <path fill="#fff" d="M62.672 265.623q-7.895 0-17.622.837t-18.743.837a82.11 82.11 0 0 1-15.949-1.39c-4.658-.931-7.563-2.889-8.684-5.873q-3.348-2.795 0-6.443a244.555 244.555 0 0 1 6.158-6.442q10.643-1.121 18.475-1.674c5.226-.363 10.074-.837 14.543-1.39s8.763-1.12 12.869-1.69 8.4-1.2 12.885-1.957q8.385-31.328 15.664-59.877t14.053-56.546q6.695-27.98 13.154-56.514t13.69-59.86q5.037-7.28 8.4-7.565a81.589 81.589 0 0 1 11.196.285q3.3 17.859 4.99 30.223c1.12 8.195 2.131 16.5 3.158 24.901s2.037 17.717 3.347 27.98 3 23.18 5.227 38.971q2.226 24.065 6.158 47.371t6.711 47.845q14.543-2.226 27.98-4.737l23.78-4.484q10.36-1.943 16.802-3.08c4.28-.742 6.427-.915 6.427-.552q1.69 5.037-5.306 9.79a107.375 107.375 0 0 1-18.19 9.474q-11.212 4.737-24.065 8.969t-22.928 7.406q1.106 10.642 3.916 26.59t5.874 33.84q3.048 17.906 6.427 36.096t5.89 33.034q2.51 14.811 3.632 24.617t0 10.927q-9.475 1.105-13.706-1.974a41.26 41.26 0 0 0-10.359-5.305q-4.469-36.95-11.148-75.289t-10.627-76.394q-12.885 2.795-32.75 7.548t-41.054 8.132q-3.348 12.317-6.143 27.412t-5.747 28.833q-2.795 13.738-4.737 24.633c-1.311 7.264-2.527 12.033-3.648 14.212-1.863 1.879-5.132 3.079-9.79 3.647a13.09 13.09 0 0 1-11.464-3.647 103.49 103.49 0 0 1 2.51-15.38q2.543-12.032 5.89-26.591t7.027-28.218q3.6-13.69 5.827-21.538zm26.844-27.428q8.384-1.673 18.49-3.647c6.727-1.31 12.964-2.7 18.76-4.2s10.816-2.7 15.095-3.632a51.208 51.208 0 0 0 7.563-1.958q-1.137-12.317-1.958-20.433c-.552-5.4-1.12-11.053-1.673-17.07s-1.232-12.947-1.974-20.985-1.863-18.917-3.285-32.78q-4.5-35.26-6.442-52.614t-3.632-11.18q-7.895 30.207-13.706 52.314t-10.643 40.85q-4.737 18.759-8.669 36.665t-7.895 38.67h-.031z" class="cls-1"/>
</svg>
