<?xml version="1.0" encoding="utf-8"?>
<!-- Generator: Adobe Illustrator 23.1.1, SVG Export Plug-In . SVG Version: 6.00 Build 0)  -->
<svg version="1.1" id="Layer_1" xmlns="http://www.w3.org/2000/svg" xmlns:xlink="http://www.w3.org/1999/xlink" x="0px" y="0px"
	 viewBox="0 0 200.2 59" style="enable-background:new 0 0 200.2 59;" xml:space="preserve">
<style type="text/css">
	.st0{fill:#69614E;}
</style>
<g>
	<path class="st0" d="M30.4,48.7l-19.2,9.7l4-21.2L0,21.9l21.4-2.7L31.2,0l9.3,19.5l21.3,3.4L46.1,37.7L49.4,59L30.4,48.7L30.4,48.7
		z M45.7,53.8L43,36.7l12.6-11.9L38.5,22L31.1,6.3l-7.6,14.8l-0.3,0.7L6,24l12.2,12.3l-3.2,17l15.5-7.8L45.7,53.8L45.7,53.8z
		 M99.7,48.7l-19.2,9.7l4-21.2L69.2,21.9l21.3-2.7L100.4,0l9.2,19.5l21.3,3.4l-15.7,14.8l3.3,21.3L99.7,48.7L99.7,48.7z M115,53.8
		l-2.7-17.1l12.6-11.9L107.8,22l-7.4-15.7l-7.6,14.8l-0.3,0.7L75.2,24l12.2,12.3l-3.2,17l15.5-7.8L115,53.8L115,53.8z M168.9,48.7
		l-19.2,9.7l4-21.2l-15.2-15.3l21.4-2.7L169.7,0l9.3,19.5l21.3,3.4l-15.6,14.8l3.3,21.3L168.9,48.7L168.9,48.7z M184.2,53.8
		l-2.6-17.1l12.6-11.9L177.1,22l-7.5-15.7L162,21.1l-0.3,0.7L144.5,24l12.2,12.3l-3.2,17l15.5-7.8L184.2,53.8L184.2,53.8z"/>
</g>
</svg>
